<?xml version="1.0" encoding="UTF-8" standalone="no"?>
<svg
   width="600"
   height="600"
   viewBox="0 0 600 600"
   version="1.1"
   id="svg3"
   xmlns="http://www.w3.org/2000/svg"
   xmlns:svg="http://www.w3.org/2000/svg">
  <defs
     id="defs3" />
  <rect
     style="fill:#ffffff;stroke-width:1.88976;stroke-linecap:square;stroke-miterlimit:31.9"
     id="rect3"
     width="609.81134"
     height="608.30188"
     x="-6.0377359"
     y="-3.7735848" />
  <g
     id="g3">
    <path
       d="m 323,417.98 c -10.5,1.34 -28.59,1.13 -34.29,-0.4 -2.63,-0.71 -5.83,-1.09 -7.12,-0.84 -1.28,0.24 -3.71,-0.27 -5.4,-1.14 -1.68,-0.87 -3.74,-1.32 -4.57,-1.01 -3.15,1.21 -36.4,-11.57 -41.11,-15.79 -0.8,-0.72 -3.76,-2.88 -6.59,-4.8 -2.83,-1.92 -8.09,-6.07 -11.7,-9.21 -3.6,-3.14 -6.85,-5.52 -7.22,-5.29 -1.08,0.67 -5,-2.48 -5,-4.02 0,-0.78 -0.87,-1.87 -1.93,-2.44 -1.86,-1 -2.96,-2.96 -8.5,-15.23 -1.42,-3.13 -3.02,-5.97 -3.57,-6.31 -1.11,-0.69 -1.22,-11.57 -0.18,-18.5 0.59,-3.89 1.19,-4.77 4.43,-6.5 2.14,-1.14 4.43,-3.43 5.34,-5.34 0.87,-1.83 3.08,-4.21 4.91,-5.29 1.83,-1.08 3.59,-2.67 3.93,-3.54 0.51,-1.33 1.72,-1.47 7.53,-0.9 6.18,0.61 7.15,0.46 8.98,-1.37 1.14,-1.14 2.52,-2.06 3.09,-2.06 0.57,0 1.29,-0.67 1.61,-1.5 1.12,-2.93 5.72,-1.67 10.76,2.96 4.55,4.17 4.91,4.87 5.79,11.25 0.52,3.73 1,8.25 1.06,10.04 0.05,1.79 0.47,3.25 0.92,3.25 0.46,0 0.83,1.21 0.83,2.68 0,1.48 0.94,4.62 2.08,6.98 2.24,4.63 10.45,14.34 12.12,14.34 0.56,0 3.11,1.74 5.66,3.86 6.12,5.1 9.74,6.86 15.7,7.66 2.72,0.36 6.06,0.85 7.44,1.1 7.67,1.35 14,1.59 14,0.52 0,-0.69 1.87,-1.14 4.75,-1.15 2.61,0 5.87,-0.58 7.25,-1.29 1.38,-0.71 5.31,-2.34 8.74,-3.61 4.68,-1.74 7.99,-4 13.25,-9.01 3.85,-3.68 7.01,-7.05 7.01,-7.49 0,-0.44 1.29,-2.44 2.86,-4.45 4.96,-6.33 7.32,-14.18 7.25,-24.14 -0.02,-1.38 0.26,-3.17 0.61,-4 1.07,-2.51 1.06,-4.99 0,-4.33 -0.64,0.4 -0.79,-0.45 -0.43,-2.27 0.32,-1.6 0.1,-5.93 -0.49,-9.63 -0.82,-5.05 -1.81,-7.54 -3.98,-9.97 -1.59,-1.78 -3.17,-4.38 -3.52,-5.77 -1.58,-6.42 -10.74,-15.03 -15.98,-15.03 -1.21,0 -2.47,-0.44 -2.81,-0.98 -0.33,-0.53 -3.08,-2.62 -6.11,-4.63 -5.1,-3.39 -5.92,-3.62 -10.94,-3.1 -2.99,0.31 -5.63,0.24 -5.88,-0.16 -0.8,-1.29 -14.98,-0.33 -17.95,1.21 -1.59,0.83 -3.57,1.24 -4.42,0.91 -0.85,-0.32 -1.28,-0.18 -0.97,0.33 0.31,0.51 -0.7,1.01 -2.25,1.12 -5.65,0.41 -15.92,6.93 -16.68,10.59 -0.57,2.77 -9.86,11.71 -12.17,11.71 -0.63,0 -1.14,0.45 -1.14,1 0,2.87 -6.56,-0.95 -14.17,-8.25 -2.15,-2.06 -4.56,-3.75 -5.37,-3.75 -1.79,0 -1.91,-1.6 -0.21,-2.66 0.69,-0.42 5.02,-0.79 9.63,-0.8 6.97,-0.03 8.53,-0.34 9.25,-1.79 0.48,-0.96 1.25,-2.53 1.71,-3.48 0.47,-0.95 1.89,-1.97 3.16,-2.27 1.27,-0.3 2.69,-1.32 3.16,-2.27 0.46,-0.95 1.22,-2.52 1.69,-3.48 1.2,-2.45 13.2,-3.03 16.39,-0.8 3.12,2.19 4.66,1.93 5.76,-0.95 0.93,-2.45 3,-3.48 3,-1.5 0,0.57 3,1 7,1 h 7 v -2.88 c 0,-4.23 2.09,-5.45 8.24,-4.79 7.13,0.76 13.84,-0.4 14.9,-2.58 0.47,-0.96 1.24,-2.54 1.71,-3.5 0.63,-1.3 2.48,-1.88 7.15,-2.25 4.67,-0.37 6.52,-0.95 7.15,-2.25 0.47,-0.96 1.24,-2.54 1.71,-3.5 0.47,-0.96 1.68,-1.91 2.68,-2.11 1.01,-0.2 3.17,-1.7 4.81,-3.34 2.52,-2.51 3.47,-2.87 6.07,-2.27 1.69,0.39 5.1,1.07 7.58,1.52 11.1,1.99 18.04,4.66 21.12,8.13 0.89,1 2.07,1.82 2.62,1.82 0.56,0 1.53,0.62 2.15,1.37 0.63,0.76 2.72,1.63 4.64,1.94 1.93,0.31 5.15,1.93 7.16,3.58 2.01,1.66 4.14,2.74 4.73,2.4 0.59,-0.33 0.8,-0.29 0.45,0.1 -0.79,0.88 1.7,3.93 10.63,13 7.66,7.78 9.89,10.81 10.76,14.61 2.47,10.78 4.85,18.45 5.94,19.13 2.3,1.41 2.11,32.31 -0.26,44.03 -2.32,11.5 -7.96,24.06 -12.18,27.17 -3.9,2.87 -8.75,9.54 -8.12,11.17 0.49,1.29 -15.25,15.77 -19.14,17.59 -1.1,0.52 -3.35,1.83 -5,2.92 -14.04,9.28 -40.34,18.4 -60.5,20.97 z m -17.13,122.27 c -1.05,2.06 -2.12,3.75 -2.38,3.75 -0.25,0 -1.54,-1.69 -2.85,-3.75 -3.23,-5.08 -4.92,-6.42 -13.64,-10.77 -9.34,-4.66 -34.68,-19.89 -46,-27.63 -25.91,-17.73 -51,-38.04 -51,-41.28 0,-1.5 -7.44,-8.57 -9.01,-8.57 -1.58,0 -16.72,-15.58 -17.49,-17.99 -0.43,-1.35 -1.22,-1.95 -2.14,-1.59 -0.81,0.3 -1.21,0.15 -0.91,-0.35 0.31,-0.49 0.22,-1.05 -0.19,-1.23 -1.77,-0.79 -13.15,-14.75 -15.76,-19.34 -3.14,-5.52 -6.77,-10.27 -13.22,-17.3 -2.62,-2.85 -4.52,-6.01 -4.91,-8.17 -0.35,-1.94 -1.09,-4.43 -1.65,-5.53 -1.37,-2.72 -7.45,-9.44 -8.02,-8.87 -0.25,0.25 -0.73,-0.26 -1.07,-1.14 -0.4,-1.07 -0.22,-1.35 0.58,-0.86 0.65,0.4 0.19,-0.66 -1.01,-2.35 -1.21,-1.7 -2.2,-3.93 -2.2,-4.96 0,-1.03 -0.71,-2.88 -1.57,-4.11 -0.86,-1.23 -1.6,-3.56 -1.65,-5.18 -0.06,-2.15 -1.11,-3.77 -3.93,-6.03 -2.12,-1.7 -3.85,-3.75 -3.85,-4.55 0,-0.8 -0.36,-1.45 -0.8,-1.45 -1.15,0 -3.2,-6.13 -3.2,-9.57 0,-2.42 0.44,-2.96 2.5,-3.07 2.32,-0.14 3.11,1.07 2.58,3.99 -0.48,2.69 1.09,4.34 3.69,3.87 3.93,-0.7 5.23,-2.06 5.23,-5.45 0,-2.24 0.37,-2.84 1.5,-2.41 0.97,0.38 1.5,-0.03 1.51,-1.14 0,-1.2 0.6,-0.81 1.99,1.28 1.09,1.65 1.99,3.92 1.99,5.05 0.01,1.13 0.53,2.57 1.16,3.2 0.64,0.64 1.12,2.55 1.07,4.26 -0.05,1.84 0.49,3.33 1.35,3.65 0.78,0.31 1.44,1.52 1.45,2.7 0.01,2.46 1.94,6.13 1.96,3.74 0.01,-0.85 0.99,-0.35 2.52,1.31 1.38,1.48 2.5,3.33 2.5,4.11 0,0.77 0.88,1.88 1.96,2.46 1.07,0.57 2.24,2.57 2.59,4.44 0.35,1.86 1.87,4.67 3.38,6.24 4.98,5.16 9.12,11.62 8.56,13.38 -0.55,1.73 2.83,6.63 9.95,14.46 2,2.2 5.52,6.48 7.83,9.5 2.31,3.02 4.77,6.09 5.47,6.82 0.69,0.73 1.26,1.66 1.26,2.06 0,0.41 1.27,2.06 2.81,3.68 6.53,6.81 18.22,20.44 17.55,20.44 -0.4,0 0.59,1.4 2.2,3.1 3.93,4.16 20.19,17.9 21.18,17.9 0.43,0 1.31,0.85 1.96,1.9 1.35,2.15 17.98,16.02 30.8,25.68 3.3,2.48 7.76,5.96 9.92,7.72 2.15,1.76 5.75,4.29 8,5.63 2.24,1.33 4.31,2.72 4.58,3.08 0.85,1.12 16.29,11.34 20.5,13.58 2.31,1.22 5.27,4.08 7,6.75 1.65,2.54 3.52,4.63 4.16,4.64 0.64,0.01 2.42,-1.98 3.96,-4.42 1.56,-2.46 4.61,-5.44 6.85,-6.69 2.21,-1.23 6.73,-4.11 10.03,-6.39 3.3,-2.27 9.83,-6.77 14.5,-9.98 15.87,-10.92 21.27,-15.14 41.63,-32.51 6.13,-5.22 12.98,-10.81 15.24,-12.43 2.26,-1.61 4.39,-3.86 4.72,-5 0.34,-1.13 4.73,-6.16 9.76,-11.16 9.33,-9.28 10.6,-10.75 17.71,-20.4 2.23,-3.02 6.46,-7.98 9.38,-11 2.93,-3.02 6.76,-8.36 8.52,-11.86 1.75,-3.5 6.12,-10.17 9.71,-14.82 3.59,-4.65 7.64,-11.2 9,-14.56 1.37,-3.35 3.96,-8.4 5.76,-11.22 1.8,-2.81 3.86,-6.9 4.57,-9.08 0.71,-2.18 2.13,-5.03 3.15,-6.34 1.02,-1.32 1.85,-2.91 1.85,-3.54 0,-0.63 1.65,-4.26 3.67,-8.06 2.02,-3.8 4,-8.51 4.4,-10.46 0.41,-1.96 1.62,-5.86 2.7,-8.67 1.07,-2.81 2.26,-6.71 2.62,-8.68 0.37,-1.96 1.11,-3.71 1.65,-3.89 0.54,-0.18 1.17,-1.29 1.39,-2.48 0.23,-1.18 1.17,-3.59 2.08,-5.36 0.91,-1.77 1.44,-4.06 1.17,-5.1 -0.27,-1.03 -0.15,-1.88 0.27,-1.88 0.43,0 1.04,-2.58 1.36,-5.73 0.33,-3.16 1.07,-5.9 1.64,-6.09 0.58,-0.19 1.05,-1.29 1.05,-2.45 0,-3.46 2.18,-14.02 3.53,-17.12 0.7,-1.59 1.1,-4.07 0.91,-5.5 -0.53,-3.87 1.84,-21.11 2.9,-21.11 0.52,0 0.63,-2.19 0.24,-5.09 -0.42,-3.16 -0.31,-4.86 0.29,-4.49 0.59,0.36 0.81,-2.29 0.58,-6.95 -0.24,-4.7 -0.02,-7.32 0.58,-6.95 0.61,0.38 0.93,-4.54 0.85,-13.21 -0.07,-7.96 -0.42,-12.54 -0.83,-10.81 -0.41,1.69 -0.62,-1.37 -0.49,-7 0.27,-11.58 -0.39,-18.72 -1.65,-17.94 -0.49,0.3 -0.62,-0.15 -0.29,-1.01 0.33,-0.85 0.2,-1.55 -0.29,-1.55 -1.02,0 -3.33,-13.56 -3.33,-19.54 0,-4.28 2.22,-8.46 4.49,-8.46 0.75,0 1.51,-1.01 1.69,-2.24 0.2,-1.38 1.57,-2.84 3.53,-3.76 1.77,-0.83 3.89,-2.41 4.72,-3.51 0.83,-1.09 1.52,-1.46 1.54,-0.81 0.02,0.65 0.65,1.79 1.4,2.55 1,1 1.18,2.64 0.67,6.03 -0.39,2.56 -0.34,5.24 0.11,5.95 0.45,0.71 0.83,2.53 0.83,4.05 0.01,1.52 0.45,3.55 0.96,4.5 1.23,2.26 3.87,18.97 4.74,30.05 0.51,6.44 0.9,8.04 1.49,6.19 0.67,-2.1 0.7,-2.02 0.24,0.5 -0.64,3.47 -0.45,29.63 0.23,30.73 0.25,0.4 -0.02,1.61 -0.6,2.69 -0.74,1.38 -0.73,2.16 0.04,2.63 1.46,0.9 0.52,15.46 -1.07,16.44 -1.43,0.89 -2.86,11.68 -2.39,18.01 0.4,5.32 -2.2,20.12 -3.7,21.05 -0.57,0.35 -0.75,1.78 -0.4,3.19 0.91,3.59 -5.89,28.8 -9.15,33.97 -1.44,2.28 -2.6,5.3 -2.57,6.72 0.1,5.76 -2.76,13.85 -12.75,36.06 -12,26.69 -26.15,49.33 -48.73,78.01 -14.37,18.24 -42.8,46.23 -61.1,60.16 -3.14,2.39 -6.61,5.17 -7.72,6.18 -2.09,1.94 -31.52,22.34 -35,24.27 -1.1,0.62 -4.54,2.64 -7.65,4.5 -9.32,5.59 -11.99,7.12 -20.32,11.64 -9.46,5.14 -11.13,6.55 -13.66,11.5 z M 401,192 l -2.04,4 -8.23,-0.18 c -6.12,-0.14 -6.88,-0.28 -2.98,-0.56 2.89,-0.2 5.25,-0.79 5.25,-1.31 0,-0.52 -0.37,-0.95 -0.83,-0.95 -1.09,0 -0.21,-6.14 1.13,-7.81 0.58,-0.73 1.98,-1.09 3.13,-0.8 2.32,0.57 5.76,-1.76 7.45,-5.07 1.52,-2.98 1.41,-4.32 -0.38,-4.32 -0.83,0 -1.5,-0.68 -1.5,-1.5 0,-1.74 3.09,-2.01 4.69,-0.41 1.89,1.89 -0.55,14.91 -2.79,14.91 -0.47,0 -1.78,1.8 -2.9,4 z m -177.74,78.5 c 2.06,2.48 2.27,3.22 1.17,4.25 -1.08,1.01 -2.24,0.39 -6.1,-3.25 -3.36,-3.18 -4.24,-4.5 -2.98,-4.5 1.02,0 1.48,-0.46 1.09,-1.09 -1.36,-2.2 4.38,1.66 6.82,4.59 z m 87.92,-45 c -0.12,0.1 -0.23,0.2 -0.35,0.29 -1.78,1.51 -2.47,2.09 -3.13,2.06 -0.46,-0.02 -0.91,-0.34 -1.7,-0.85 -0.83,-0.53 -2.51,-0.98 -3.75,-0.98 -1.24,-0.01 -2.25,-0.28 -2.25,-0.59 0,-1.5 2.81,-3.1 5.03,-2.86 1.36,0.14 3.97,0.3 5.8,0.35 l 3.32,0.08 z m 104.18,-64.14 c -5.44,5.44 -6.76,2.08 -2.01,-5.11 1.94,-2.93 2.27,-3.08 3.4,-1.55 1.82,2.46 1.56,3.72 -1.39,6.66 z m -202.89,77.7 c -0.02,2.36 -0.52,4.46 -1.1,4.65 -1.95,0.65 -3.2,-2.15 -3.13,-6.98 0.07,-4.61 0.15,-4.72 2.17,-3.36 1.59,1.06 2.08,2.42 2.06,5.69 z M 516.23,87.64 c -0.59,-0.36 -1.23,-0.01 -1.4,0.78 -0.27,1.2 -0.63,1.23 -2.08,0.15 -1.18,-0.87 -1.75,-2.65 -1.75,-5.43 0,-5.15 1.38,-5.29 3.62,-0.39 0.94,2.06 1.94,4.16 2.2,4.65 0.27,0.5 0,0.61 -0.59,0.24 z M 243,231.94 c 0,1.8 -1.83,1.17 -2.47,-0.85 -0.99,-3.12 0.36,-6.66 2.52,-6.66 1.59,0 1.95,0.7 1.95,3.84 0,2.31 -0.4,3.6 -1,3.23 -0.55,-0.34 -1,-0.14 -1,0.44 z m 95.55,-7.16 c -1.28,1.29 -8.09,1.09 -10.55,-0.3 l -2.5,-1.41 2.5,-0.05 c 1.99,-0.04 2.19,-0.25 1,-1.02 -1.12,-0.73 -0.62,-0.97 2,-0.97 2.32,0 3.05,0.29 2.15,0.86 -0.94,0.59 -0.23,1.06 2.35,1.54 2.04,0.39 3.41,0.99 3.05,1.35 z M 98.5,267.99 c 0.95,4.35 -0.97,6.27 -2.63,2.63 -1.02,-2.25 -0.96,-2.95 0.35,-4.27 1.43,-1.43 1.64,-1.28 2.28,1.64 z M 510,86.5 c 0,0.83 -0.89,1.5 -2,1.5 -1.11,0 -2,-0.67 -2,-1.5 0,-0.83 0.89,-1.5 2,-1.5 1.11,0 2,0.67 2,1.5 z m -5.64,-17 c -0.31,0.82 -1.41,1.5 -2.44,1.5 -1.24,0 -1.67,-0.5 -1.28,-1.5 0.31,-0.82 1.41,-1.5 2.44,-1.5 1.24,0 1.67,0.5 1.28,1.5 z"
       fill="rgb(227,227,227)"
       id="path1"
       style="display:inline;fill:#000000" />
    <path
       d="m 524.38,270.64 c 0.23,-1.6 0.29,-2.8 0.14,-3.4 -0.35,-1.41 -0.17,-2.84 0.4,-3.19 1.5,-0.93 4.1,-15.73 3.7,-21.05 -0.47,-6.33 0.96,-17.12 2.39,-18.01 1.59,-0.98 2.53,-15.54 1.07,-16.44 -0.77,-0.47 -0.78,-1.25 -0.04,-2.63 0.58,-1.08 0.85,-2.29 0.6,-2.69 -0.68,-1.1 -0.87,-27.26 -0.23,-30.73 0.46,-2.52 0.43,-2.6 -0.24,-0.5 -0.59,1.85 -0.98,0.25 -1.49,-6.19 -0.87,-11.08 -3.51,-27.79 -4.74,-30.05 -0.51,-0.95 -0.95,-2.98 -0.96,-4.5 0,-1.52 -0.38,-3.34 -0.83,-4.05 -0.45,-0.71 -0.5,-3.39 -0.11,-5.95 0.51,-3.39 0.33,-5.03 -0.67,-6.03 -0.75,-0.76 -1.38,-1.9 -1.4,-2.55 -0.02,-0.65 -0.71,-0.28 -1.54,0.81 -0.83,1.1 -2.95,2.68 -4.72,3.51 -1.96,0.92 -3.33,2.38 -3.53,3.76 -0.18,1.23 -0.94,2.24 -1.69,2.24 -2.27,0 -4.49,4.18 -4.49,8.46 0,2.54 0.42,6.44 0.97,10.09 -0.31,-1.68 -0.63,-3.02 -0.94,-3.96 -1.3,-3.94 -7.13,-26.6 -7.36,-28.59 -0.09,-0.82 -0.41,-1.72 -0.7,-2 -0.28,-0.28 -2.43,-5 -4.76,-10.5 -3.56,-8.37 -4.69,-11.54 -6.36,-11.84 -0.95,-0.18 -2.08,0.59 -3.94,1.85 -0.37,0.25 -0.77,0.52 -1.2,0.81 -13.83,9.18 -29.72,15.39 -46.59,18.21 -15.08,2.52 -41.13,1.67 -58.83,-1.91 -18.79,-3.81 -44.47,-12.21 -55.79,-18.26 -1.65,-0.88 -6.38,-3.37 -10.5,-5.54 -4.12,-2.16 -8.3,-4.47 -9.27,-5.12 -1.46,-0.99 -2.71,-0.7 -7,1.63 -2.88,1.56 -10.01,5.27 -15.85,8.26 -51.05,26.14 -103.75,30.11 -145.24,10.94 -4.21,-1.94 -7.91,-3.53 -8.22,-3.53 -0.32,0 -3.03,-1.62 -6.02,-3.61 -4.29,-2.85 -5.73,-3.36 -6.83,-2.44 -0.77,0.64 -2.98,5.3 -4.9,10.35 -11.13,29.33 -16.05,58.98 -16.04,96.7 0,52.28 12.29,101.73 38.14,153.5 6.97,13.98 22.43,39.71 27.93,46.5 0.66,0.83 4.71,6.23 8.99,12 4.27,5.77 8.68,11.58 9.79,12.9 13.97,16.61 27.01,30.6 40.29,43.1 h -0.03 c -0.99,0 -17.25,-13.74 -21.18,-17.9 -1.61,-1.7 -2.6,-3.1 -2.2,-3.1 0.67,0 -11.02,-13.63 -17.55,-20.44 -1.54,-1.62 -2.81,-3.27 -2.81,-3.68 0,-0.4 -0.57,-1.33 -1.26,-2.06 -0.7,-0.73 -3.16,-3.8 -5.47,-6.82 -2.31,-3.02 -5.83,-7.3 -7.83,-9.5 -7.12,-7.83 -10.5,-12.73 -9.95,-14.46 0.56,-1.76 -3.58,-8.22 -8.56,-13.38 -1.51,-1.57 -3.03,-4.38 -3.38,-6.24 -0.35,-1.87 -1.52,-3.87 -2.59,-4.44 -1.08,-0.58 -1.96,-1.69 -1.96,-2.46 0,-0.78 -1.12,-2.63 -2.5,-4.11 -1.53,-1.66 -2.51,-2.16 -2.52,-1.31 -0.02,2.39 -1.95,-1.28 -1.96,-3.74 -0.01,-1.18 -0.67,-2.39 -1.45,-2.7 -0.86,-0.32 -1.4,-1.81 -1.35,-3.65 0.05,-1.71 -0.43,-3.62 -1.07,-4.26 -0.63,-0.63 -1.15,-2.07 -1.16,-3.2 0,-1.13 -0.9,-3.4 -1.99,-5.05 -1.39,-2.09 -1.99,-2.48 -1.99,-1.28 -0.01,1.11 -0.54,1.52 -1.51,1.14 -1.13,-0.43 -1.5,0.17 -1.5,2.41 0,3.39 -1.3,4.75 -5.23,5.45 -2.6,0.47 -4.17,-1.18 -3.69,-3.87 0.53,-2.92 -0.26,-4.13 -2.58,-3.99 -2.06,0.11 -2.5,0.65 -2.5,3.07 0,3.44 2.05,9.57 3.2,9.57 0.44,0 0.8,0.65 0.8,1.45 0,0.8 1.73,2.85 3.85,4.55 2.82,2.26 3.87,3.88 3.93,6.03 0.05,1.62 0.79,3.95 1.65,5.18 0.86,1.23 1.57,3.08 1.57,4.11 0,1.03 0.99,3.26 2.2,4.96 1.2,1.69 1.66,2.75 1.01,2.35 -0.8,-0.49 -0.98,-0.21 -0.58,0.86 0.34,0.88 0.82,1.39 1.07,1.14 0.57,-0.57 6.65,6.15 8.02,8.87 0.56,1.1 1.3,3.59 1.65,5.53 0.39,2.16 2.29,5.32 4.91,8.17 6.45,7.03 10.08,11.78 13.22,17.3 2.61,4.59 13.99,18.55 15.76,19.34 0.41,0.18 0.5,0.74 0.19,1.23 -0.3,0.5 0.1,0.65 0.91,0.35 0.92,-0.36 1.71,0.24 2.14,1.59 0.77,2.41 15.91,17.99 17.49,17.99 1.57,0 9.01,7.07 9.01,8.57 0,1.05 2.67,3.92 7.16,7.93 C 186.9,460.09 185.05,458.38 179,452.6 138.33,413.74 106.35,364.2 88.05,311.69 82.25,295.07 74.5,263.78 73.63,253.49 73.39,250.75 72.95,247.82 72.64,247 70.13,240.31 68.44,190.48 70.02,169.5 71.65,147.91 76.6,118 81.12,102.5 89,75.46 93.58,64 96.52,64 c 0.82,0 5.66,2.36 10.74,5.26 9.69,5.5 11.01,6.08 24.74,10.7 20.72,6.97 43.45,9.24 66.5,6.62 32.88,-3.72 63.96,-14.14 92.13,-30.88 l 9.13,-5.43 19.37,9.65 c 43.59,21.71 93.17,31.61 128.87,25.75 19.31,-3.18 38.78,-10.2 52.07,-18.79 3.3,-2.13 6.42,-3.88 6.94,-3.88 1.56,0 4.49,6.72 8.96,20.5 2.31,7.15 4.82,14.8 5.57,17 1.7,4.98 6.95,31.25 8.42,42.07 0.6,4.45 1.27,9.04 1.5,10.21 1.37,7.14 2.73,36.67 2.21,48.18 -1.01,22.56 -1.95,30.8 -6.22,54.54 -0.82,4.58 -1.89,9.79 -3.07,15.14 z M 338.55,224.78 c 0.36,-0.36 -1.01,-0.96 -3.05,-1.35 -2.58,-0.48 -3.29,-0.95 -2.35,-1.54 0.39,-0.25 0.48,-0.45 0.25,-0.59 26.41,1.82 50.78,10.87 68.17,25.48 16.43,13.8 24.85,28.6 27.47,49.64 -0.23,-1.28 -0.51,-2.09 -0.84,-2.29 -1.09,-0.68 -3.47,-8.35 -5.94,-19.13 -0.87,-3.8 -3.1,-6.83 -10.76,-14.61 -8.93,-9.07 -11.42,-12.12 -10.63,-13 0.35,-0.39 0.14,-0.43 -0.45,-0.1 -0.59,0.34 -2.72,-0.74 -4.73,-2.4 -2.01,-1.65 -5.23,-3.27 -7.16,-3.58 -1.92,-0.31 -4.01,-1.18 -4.64,-1.94 -0.62,-0.75 -1.59,-1.37 -2.15,-1.37 -0.55,0 -1.73,-0.82 -2.62,-1.82 -3.08,-3.47 -10.02,-6.14 -21.12,-8.13 -2.48,-0.45 -5.89,-1.13 -7.58,-1.52 -2.6,-0.6 -3.55,-0.24 -6.07,2.27 -1.64,1.64 -3.8,3.14 -4.81,3.34 -1,0.2 -2.21,1.15 -2.68,2.11 -0.47,0.96 -1.24,2.54 -1.71,3.5 -0.63,1.3 -2.48,1.88 -7.15,2.25 -4.67,0.37 -6.52,0.95 -7.15,2.25 -0.47,0.96 -1.24,2.54 -1.71,3.5 -1.06,2.18 -7.77,3.34 -14.9,2.58 -6.15,-0.66 -8.24,0.56 -8.24,4.79 V 256 h -7 c -4,0 -7,-0.43 -7,-1 0,-1.98 -2.07,-0.95 -3,1.5 -1.1,2.88 -2.64,3.14 -5.76,0.95 -3.19,-2.23 -15.19,-1.65 -16.39,0.8 -0.47,0.96 -1.23,2.53 -1.69,3.48 -0.47,0.95 -1.89,1.97 -3.16,2.27 -1.27,0.3 -2.69,1.32 -3.16,2.27 -0.46,0.95 -1.23,2.52 -1.71,3.48 -0.72,1.45 -2.28,1.76 -9.25,1.79 -4.61,0.01 -8.94,0.38 -9.63,0.8 -1.7,1.06 -1.58,2.66 0.21,2.66 0.81,0 3.22,1.69 5.37,3.75 7.61,7.3 14.17,11.12 14.17,8.25 0,-0.55 0.51,-1 1.14,-1 2.31,0 11.6,-8.94 12.17,-11.71 0.76,-3.66 11.03,-10.18 16.68,-10.59 1.55,-0.11 2.56,-0.61 2.25,-1.12 -0.31,-0.51 0.12,-0.65 0.97,-0.33 0.85,0.33 2.83,-0.08 4.42,-0.91 2.97,-1.54 17.15,-2.5 17.95,-1.21 0.25,0.4 2.89,0.47 5.88,0.16 5.02,-0.52 5.84,-0.29 10.94,3.1 3.03,2.01 5.78,4.1 6.11,4.63 0.34,0.54 1.6,0.98 2.81,0.98 5.24,0 14.4,8.61 15.98,15.03 0.35,1.39 1.93,3.99 3.52,5.77 2.17,2.43 3.16,4.92 3.98,9.97 0.59,3.7 0.81,8.03 0.49,9.63 -0.36,1.82 -0.21,2.67 0.43,2.27 1.06,-0.66 1.07,1.82 0,4.33 -0.19,0.46 -0.37,1.24 -0.48,2.07 -0.04,-1.42 -0.16,-3.08 -0.35,-5.17 -2.92,-32.42 -25.31,-51.99 -57.99,-50.69 -9.63,0.39 -11.29,0.76 -18.13,4 -9.02,4.29 -14.28,8.83 -21.53,18.61 -4.03,5.44 -5.85,7.16 -7.08,6.69 -1.73,-0.65 -14.44,-8.17 -21.16,-12.51 -2.13,-1.38 -7.51,-4.69 -11.96,-7.36 -4.45,-2.67 -8.51,-5.65 -9.03,-6.62 -0.61,-1.14 -0.41,-6.28 0.57,-14.64 0.83,-7.08 1.74,-16.26 2.02,-20.38 0.27,-4.12 0.94,-11.32 1.49,-16 1.15,-9.96 1.49,-13.55 2.3,-25 0.74,-10.34 3.54,-36.02 4.13,-37.75 0.61,-1.83 202.32,-1.83 203.01,0 0.26,0.69 -0.82,4.63 -2.4,8.75 -3.77,9.86 -9.78,25.12 -12.59,32 l -2.25,5.5 -72.8,0.19 c -50.19,0.14 -73.63,0.54 -75.46,1.3 -1.46,0.6 -3.46,2.46 -4.45,4.14 -3.7,6.26 -6.41,42.87 -3.17,42.87 0.77,0 3.36,-1.65 5.75,-3.66 13.2,-11.12 25.65,-16.78 43.7,-19.85 9.08,-1.55 12.11,-1.7 29.14,-1.52 1.47,0.01 2.94,0.05 4.41,0.11 -1.18,0.1 -1.25,0.38 -0.41,0.92 1.19,0.77 0.99,0.98 -1,1.02 l -2.5,0.05 2.5,1.41 c 2.46,1.39 9.27,1.59 10.55,0.3 z m 168.99,-79.83 c 0.64,3.44 1.34,6.05 1.79,6.05 0.49,0 0.62,0.7 0.29,1.55 -0.33,0.86 -0.2,1.31 0.29,1.01 1.26,-0.78 1.92,6.36 1.65,17.94 -0.13,5.63 0.08,8.69 0.49,7 0.41,-1.73 0.76,2.85 0.83,10.81 0.08,8.67 -0.24,13.59 -0.85,13.21 -0.6,-0.37 -0.82,2.25 -0.58,6.95 0.23,4.66 0.01,7.31 -0.58,6.95 -0.6,-0.37 -0.71,1.33 -0.29,4.49 0.39,2.9 0.28,5.09 -0.24,5.09 -1.06,0 -3.43,17.24 -2.9,21.11 0.19,1.43 -0.21,3.91 -0.91,5.5 -1.35,3.1 -3.53,13.66 -3.53,17.12 0,1.16 -0.47,2.26 -1.05,2.45 -0.57,0.19 -1.31,2.93 -1.64,6.09 -0.32,3.15 -0.93,5.73 -1.36,5.73 -0.42,0 -0.54,0.85 -0.27,1.88 0.27,1.04 -0.26,3.33 -1.17,5.1 -0.91,1.77 -1.85,4.18 -2.08,5.36 -0.22,1.19 -0.85,2.3 -1.39,2.48 -0.54,0.18 -1.28,1.93 -1.65,3.89 -0.36,1.97 -1.55,5.87 -2.62,8.68 -1.08,2.81 -2.29,6.71 -2.7,8.67 -0.4,1.95 -2.38,6.66 -4.4,10.46 -2.02,3.8 -3.67,7.43 -3.67,8.06 0,0.63 -0.83,2.22 -1.85,3.54 -1.02,1.31 -2.44,4.16 -3.15,6.34 -0.71,2.18 -2.77,6.27 -4.57,9.08 -1.8,2.82 -4.39,7.87 -5.76,11.22 -1.36,3.36 -5.41,9.91 -9,14.56 -3.59,4.65 -7.96,11.32 -9.71,14.82 -1.76,3.5 -5.59,8.84 -8.52,11.86 -2.92,3.02 -7.15,7.98 -9.38,11 -7.11,9.65 -8.38,11.12 -17.71,20.4 -0.45,0.44 -0.89,0.89 -1.33,1.33 v -0.01 c 0.02,-0.67 2.51,-3.92 5.55,-7.22 8.13,-8.82 24.98,-30.46 33.15,-42.56 15.05,-22.31 31.3,-53.31 39.27,-74.94 1.72,-4.67 3.97,-10.52 4.99,-13 2.62,-6.32 8.02,-23.88 8.02,-26.06 0,-1 0.45,-2.1 1,-2.44 0.55,-0.34 1,-2.05 1.01,-3.81 0,-1.75 0.71,-4.54 1.58,-6.19 0.86,-1.65 1.95,-6.6 2.41,-11 0.46,-4.4 1.52,-11.6 2.36,-16 2.48,-12.96 3.95,-39.33 3.26,-58.5 -0.48,-13.05 -1.73,-27.2 -3.08,-36.05 z M 227.23,305.03 c -0.74,0.2 -1.29,0.68 -1.59,1.47 -0.32,0.83 -1.04,1.5 -1.61,1.5 -0.57,0 -1.95,0.92 -3.09,2.06 -1.83,1.83 -2.8,1.98 -8.98,1.37 -5.81,-0.57 -7.02,-0.43 -7.53,0.9 -0.34,0.87 -2.1,2.46 -3.93,3.54 -1.83,1.08 -4.04,3.46 -4.91,5.29 -0.91,1.91 -3.2,4.2 -5.34,5.34 -3.24,1.73 -3.84,2.61 -4.43,6.5 -1.04,6.93 -0.93,17.81 0.18,18.5 0.55,0.34 2.15,3.18 3.57,6.31 5.54,12.27 6.64,14.23 8.5,15.23 1.06,0.57 1.93,1.66 1.93,2.44 0,1.54 3.92,4.69 5,4.02 0.37,-0.23 3.62,2.15 7.22,5.29 3.61,3.14 8.87,7.29 11.7,9.21 2.83,1.92 5.79,4.08 6.59,4.8 0.83,0.75 2.56,1.76 4.86,2.92 -11.55,-5.42 -17.96,-9.49 -26.87,-16.78 -13.42,-10.99 -17.85,-16.1 -22.2,-25.59 -3.02,-6.6 -3.95,-18.43 -2.06,-26.35 3.64,-15.26 22.58,-27.5 42.99,-27.97 z m 125.86,16.65 c -0.19,9.17 -2.55,16.49 -7.23,22.46 -1.57,2.01 -2.86,4.01 -2.86,4.45 0,0.44 -3.16,3.81 -7.01,7.49 -5.26,5.01 -8.57,7.27 -13.25,9.01 -3.43,1.27 -7.36,2.9 -8.74,3.61 -1.38,0.71 -4.64,1.29 -7.25,1.29 -2.88,0.01 -4.75,0.46 -4.75,1.15 0,1.07 -6.33,0.83 -14,-0.52 -1.38,-0.25 -4.72,-0.74 -7.44,-1.1 -5.96,-0.8 -9.58,-2.56 -15.7,-7.66 -2.55,-2.12 -5.1,-3.86 -5.66,-3.86 -1.67,0 -9.88,-9.71 -12.12,-14.34 -1.14,-2.36 -2.08,-5.5 -2.08,-6.98 0,-1.47 -0.37,-2.68 -0.83,-2.68 -0.45,0 -0.87,-1.46 -0.92,-3.25 -0.06,-1.79 -0.54,-6.31 -1.06,-10.04 -0.88,-6.38 -1.24,-7.08 -5.79,-11.25 -2.76,-2.54 -5.39,-4.06 -7.38,-4.44 11.89,0.1 14.98,3.51 14.98,16.11 0,13.52 5.49,25.24 16.33,34.87 22.23,19.75 55.1,18.52 76.46,-2.87 7,-7.01 10.73,-13.39 14.67,-25.07 0.88,-2.63 1.4,-4.45 1.63,-6.38 z M 401,192 c 1.12,-2.2 2.43,-4 2.9,-4 2.24,0 4.68,-13.02 2.79,-14.91 -1.6,-1.6 -4.69,-1.33 -4.69,0.41 0,0.82 0.67,1.5 1.5,1.5 1.79,0 1.9,1.34 0.38,4.32 -1.69,3.31 -5.13,5.64 -7.45,5.07 -1.15,-0.29 -2.55,0.07 -3.13,0.8 -1.34,1.67 -2.22,7.81 -1.13,7.81 0.46,0 0.83,0.43 0.83,0.95 0,0.52 -2.36,1.11 -5.25,1.31 -3.9,0.28 -3.14,0.42 2.98,0.56 l 8.23,0.18 z m 4.78,253.06 c -3.39,3.6 -5.94,6.65 -6.19,7.5 -0.33,1.14 -2.46,3.39 -4.72,5 -2.26,1.62 -9.11,7.21 -15.24,12.43 -4.97,4.25 -9.05,7.7 -12.61,10.67 2.82,-2.42 5.44,-4.8 7.98,-7.24 4.12,-3.96 10.29,-9.61 13.7,-12.56 3.41,-2.95 7.84,-7.28 9.85,-9.64 2.01,-2.35 4.96,-4.95 6.55,-5.77 0.23,-0.12 0.46,-0.25 0.68,-0.39 z M 223.26,270.5 c -2.44,-2.93 -8.18,-6.79 -6.82,-4.59 0.39,0.63 -0.07,1.09 -1.09,1.09 -1.26,0 -0.38,1.32 2.98,4.5 3.86,3.64 5.02,4.26 6.1,3.25 1.1,-1.03 0.89,-1.77 -1.17,-4.25 z m 87.92,-45 2.97,-2.5 -3.32,-0.08 c -1.83,-0.05 -4.44,-0.21 -5.8,-0.35 -2.22,-0.24 -5.03,1.36 -5.03,2.86 0,0.31 1.01,0.58 2.25,0.59 1.24,0 2.92,0.45 3.75,0.98 0.79,0.51 1.24,0.83 1.7,0.85 0.66,0.03 1.35,-0.55 3.13,-2.06 0.12,-0.09 0.23,-0.19 0.35,-0.29 z m 104.18,-64.14 c 2.95,-2.94 3.21,-4.2 1.39,-6.66 -1.13,-1.53 -1.46,-1.38 -3.4,1.55 -4.75,7.19 -3.43,10.55 2.01,5.11 z m -202.89,77.7 c 0.02,-3.27 -0.47,-4.63 -2.06,-5.69 -2.02,-1.36 -2.1,-1.25 -2.17,3.36 -0.07,4.83 1.18,7.63 3.13,6.98 0.58,-0.19 1.08,-2.29 1.1,-4.65 z M 516.23,87.64 c 0.59,0.37 0.86,0.26 0.59,-0.24 -0.26,-0.49 -1.26,-2.59 -2.2,-4.65 -2.24,-4.9 -3.62,-4.76 -3.62,0.39 0,2.78 0.57,4.56 1.75,5.43 1.45,1.08 1.81,1.05 2.08,-0.15 0.17,-0.79 0.81,-1.14 1.4,-0.78 z M 243,231.94 c 0,-0.58 0.45,-0.78 1,-0.44 0.6,0.37 1,-0.92 1,-3.23 0,-3.14 -0.36,-3.84 -1.95,-3.84 -2.16,0 -3.51,3.54 -2.52,6.66 0.64,2.02 2.47,2.65 2.47,0.85 z m 162.96,146.99 c 1.13,-1.26 1.78,-2.15 1.68,-2.43 -0.63,-1.63 4.22,-8.3 8.12,-11.17 3.23,-2.38 7.27,-10.27 10.04,-18.98 -2.14,7.04 -5.2,13.52 -9.38,20.23 -1.89,3.03 -5.94,7.69 -10.46,12.35 z m 95.44,-37.96 c 8.9,-19.94 11.5,-27.55 11.4,-33.04 -0.03,-1.42 1.13,-4.44 2.57,-6.72 1.31,-2.08 3.19,-7.39 4.91,-13.23 -2.57,10.17 -5.09,18.82 -6.57,22.1 -0.85,1.88 -1.85,4.54 -2.22,5.92 -1.14,4.26 -5.3,14.35 -10.09,24.97 z M 98.5,267.99 c -0.64,-2.92 -0.85,-3.07 -2.28,-1.64 -1.31,1.32 -1.37,2.02 -0.35,4.27 1.66,3.64 3.58,1.72 2.63,-2.63 z m 169.29,146.14 c 1.93,0.48 3.3,0.67 3.83,0.46 0.83,-0.31 2.89,0.14 4.57,1.01 1.69,0.87 4.12,1.38 5.4,1.14 1.29,-0.25 4.49,0.13 7.12,0.84 2.45,0.65 7.17,1.07 12.59,1.22 -4.46,-0.03 -8.45,-0.17 -10.8,-0.45 -8.2,-0.95 -15.46,-2.26 -22.71,-4.22 z M 510,86.5 c 0,-0.83 -0.89,-1.5 -2,-1.5 -1.11,0 -2,0.67 -2,1.5 0,0.83 0.89,1.5 2,1.5 1.11,0 2,-0.67 2,-1.5 z m -5.64,-17 c 0.39,-1 -0.04,-1.5 -1.28,-1.5 -1.03,0 -2.13,0.68 -2.44,1.5 -0.39,1 0.04,1.5 1.28,1.5 1.03,0 2.13,-0.68 2.44,-1.5 z M 250.65,508.15 c 12.47,7.88 29.16,17.74 36.35,21.33 -10.35,-5.17 -23.21,-12.77 -36.35,-21.33 z m -33.09,-45.48 c 8.37,7.79 16.86,15.01 25.75,21.93 -11.72,-9.11 -24.44,-19.83 -25.61,-21.7 -0.04,-0.08 -0.09,-0.15 -0.14,-0.23 z M 428.87,331.64 c 0.9,-8.71 1.18,-20.72 0.78,-28.79 0.24,3.53 0.33,7.24 0.3,11.13 -0.06,6.51 -0.4,12.32 -1.08,17.66 z m 50.91,50.41 c 5.09,-8.16 9.63,-16.23 13.82,-24.53 -1.87,3.77 -3.64,7.2 -5.18,9.97 -2.62,4.71 -5.5,9.57 -8.64,14.56 z M 357.41,488.44 c -5.99,4.69 -11.35,8.51 -19.41,14.06 -4.67,3.21 -11.2,7.71 -14.5,9.98 3.3,-2.27 9.83,-6.77 14.5,-10 7.61,-5.25 13.92,-9.8 19.41,-14.04 z M 247.64,407.16 c 4.97,2 10.19,3.92 14.51,5.32 -4.66,-1.46 -9.41,-3.21 -14.51,-5.32 z m 142.62,-14.15 c 1.9,-1.34 4.61,-3.59 7.33,-6 -2.77,2.5 -5.35,4.63 -7.33,6 z m -2.42,1.41 c 0.25,-0.13 0.47,-0.24 0.66,-0.33 0.06,-0.03 0.13,-0.06 0.2,-0.1 -0.25,0.14 -0.49,0.26 -0.7,0.36 -0.05,0.02 -0.1,0.04 -0.16,0.07 z"
       fill="rgb(233,233,233)"
       id="path2"
       style="fill:#000000;stroke:#000000;stroke-opacity:1" />
    <path
       d="M 0,300 V 0 H 300 600 V 300 600 H 300 0 Z m 305.87,240.25 c 2.53,-4.95 4.2,-6.36 13.66,-11.5 8.33,-4.52 11,-6.05 20.32,-11.64 3.11,-1.86 6.55,-3.88 7.65,-4.5 3.48,-1.93 32.91,-22.33 35,-24.27 1.11,-1.01 4.58,-3.79 7.72,-6.18 18.3,-13.93 46.73,-41.92 61.1,-60.16 15.3,-19.44 27.87,-37.9 37.1,-54.51 7.59,-13.65 20.88,-43.31 23.07,-51.49 0.37,-1.38 1.37,-4.04 2.22,-5.92 3.03,-6.71 10.38,-35.88 13.74,-54.58 4.27,-23.74 5.21,-31.98 6.22,-54.54 0.52,-11.51 -0.84,-41.04 -2.21,-48.18 -0.23,-1.17 -0.9,-5.76 -1.5,-10.21 -1.47,-10.82 -6.72,-37.09 -8.42,-42.07 -0.75,-2.2 -3.26,-9.85 -5.57,-17 -4.47,-13.78 -7.4,-20.5 -8.96,-20.5 -0.52,0 -3.64,1.75 -6.94,3.88 C 486.78,75.47 467.31,82.49 448,85.67 412.3,91.53 362.72,81.63 319.13,59.92 l -19.37,-9.65 -9.13,5.43 C 262.46,72.44 231.38,82.86 198.5,86.58 175.45,89.2 152.72,86.93 132,79.96 118.27,75.34 116.95,74.76 107.26,69.26 102.18,66.36 97.34,64 96.52,64 93.58,64 89,75.46 81.12,102.5 c -4.52,15.5 -9.47,45.41 -11.1,67 -1.58,20.98 0.11,70.81 2.62,77.5 0.31,0.82 0.75,3.75 0.99,6.49 0.87,10.29 8.62,41.58 14.42,58.2 18.3,52.51 50.28,102.05 90.95,140.91 7.7,7.36 8.61,8.13 28.71,24.51 23.23,18.92 57.04,41.26 79.29,52.37 8.72,4.35 10.41,5.69 13.64,10.77 1.31,2.06 2.6,3.75 2.85,3.75 0.26,0 1.33,-1.69 2.38,-3.75 z m -7.37,-14.91 c -1.73,-2.67 -4.69,-5.53 -7,-6.75 -4.21,-2.24 -19.65,-12.46 -20.5,-13.58 -0.27,-0.36 -2.34,-1.75 -4.58,-3.08 -2.25,-1.34 -5.85,-3.87 -8,-5.63 -2.16,-1.76 -6.62,-5.24 -9.92,-7.72 -25.83,-19.47 -47.94,-40.86 -73.02,-70.68 -1.11,-1.32 -5.52,-7.13 -9.79,-12.9 -4.28,-5.77 -8.33,-11.17 -8.99,-12 -5.5,-6.79 -20.96,-32.52 -27.93,-46.5 C 102.92,294.73 90.63,245.28 90.63,193 c -0.01,-37.72 4.91,-67.37 16.04,-96.7 1.92,-5.05 4.13,-9.71 4.9,-10.35 1.1,-0.92 2.54,-0.41 6.83,2.44 2.99,1.99 5.7,3.61 6.02,3.61 0.31,0 4.01,1.59 8.22,3.53 41.49,19.17 94.19,15.2 145.24,-10.94 5.84,-2.99 12.97,-6.7 15.85,-8.26 4.29,-2.33 5.54,-2.62 7,-1.63 0.97,0.65 5.15,2.96 9.27,5.12 4.12,2.17 8.85,4.66 10.5,5.54 11.32,6.05 37,14.45 55.79,18.26 17.7,3.58 43.75,4.43 58.83,1.91 16.87,-2.82 32.76,-9.03 46.59,-18.21 6.39,-4.24 5.5,-4.95 11.5,9.18 2.33,5.5 4.48,10.22 4.76,10.5 0.29,0.28 0.61,1.18 0.7,2 0.23,1.99 6.06,24.65 7.36,28.59 1.83,5.54 3.94,25.5 4.59,43.41 0.69,19.17 -0.78,45.54 -3.26,58.5 -0.84,4.4 -1.9,11.6 -2.36,16 -0.46,4.4 -1.55,9.35 -2.41,11 -0.87,1.65 -1.58,4.44 -1.58,6.19 -0.01,1.76 -0.46,3.47 -1.01,3.81 -0.55,0.34 -1,1.44 -1,2.44 0,2.18 -5.4,19.74 -8.02,26.06 -1.02,2.48 -3.27,8.33 -4.99,13 -7.97,21.63 -24.22,52.63 -39.27,74.94 -8.17,12.1 -25.02,33.74 -33.15,42.56 -3.04,3.3 -5.53,6.55 -5.55,7.22 -0.01,0.68 -1.32,1.9 -2.92,2.73 -1.59,0.82 -4.54,3.42 -6.55,5.77 -2.01,2.36 -6.44,6.69 -9.85,9.64 -3.41,2.95 -9.58,8.6 -13.7,12.56 -9.38,8.99 -19.93,17.28 -37,29.06 -4.67,3.23 -11.2,7.73 -14.5,10 -3.3,2.28 -7.82,5.16 -10.03,6.39 -2.24,1.25 -5.29,4.23 -6.85,6.69 -1.54,2.44 -3.32,4.43 -3.96,4.42 -0.64,-0.01 -2.51,-2.1 -4.16,-4.64 z M 323,417.98 c 20.17,-2.57 46.5,-11.7 60.5,-20.97 1.65,-1.09 3.67,-2.29 4.5,-2.66 5.6,-2.52 23.7,-20.21 28.42,-27.77 9.66,-15.5 13.32,-29.74 13.53,-52.6 0.27,-30.92 -7.72,-49.85 -28.38,-67.2 -19.22,-16.15 -46.96,-25.5 -76.57,-25.81 -17.03,-0.18 -20.06,-0.03 -29.14,1.52 -18.05,3.07 -30.5,8.73 -43.7,19.85 -2.39,2.01 -4.98,3.66 -5.75,3.66 -3.24,0 -0.53,-36.61 3.17,-42.87 0.99,-1.68 2.99,-3.54 4.45,-4.14 1.83,-0.76 25.27,-1.16 75.46,-1.3 l 72.8,-0.19 2.25,-5.5 c 2.81,-6.88 8.82,-22.14 12.59,-32 1.58,-4.12 2.66,-8.06 2.4,-8.75 -0.69,-1.83 -202.4,-1.83 -203.01,0 -0.59,1.73 -3.39,27.41 -4.13,37.75 -0.81,11.45 -1.15,15.04 -2.3,25 -0.55,4.68 -1.22,11.88 -1.49,16 -0.28,4.12 -1.19,13.3 -2.02,20.38 -0.98,8.36 -1.18,13.5 -0.57,14.64 0.52,0.97 4.58,3.95 9.03,6.62 4.45,2.67 9.83,5.98 11.96,7.36 6.72,4.34 19.43,11.86 21.16,12.51 1.23,0.47 3.05,-1.25 7.08,-6.69 7.25,-9.78 12.51,-14.32 21.53,-18.61 6.84,-3.24 8.5,-3.61 18.13,-4 32.68,-1.3 55.07,18.27 57.99,50.69 0.68,7.51 0.5,9.43 -1.43,15.16 -3.94,11.68 -7.67,18.06 -14.67,25.07 -21.36,21.39 -54.23,22.62 -76.46,2.87 C 249.49,346.37 244,334.65 244,321.13 c 0,-12.85 -3.21,-16.14 -15.7,-16.11 -20.82,0.05 -40.36,12.46 -44.06,27.98 -1.89,7.92 -0.96,19.75 2.06,26.35 4.35,9.49 8.78,14.6 22.2,25.59 10.13,8.28 17.03,12.42 31.91,19.09 18.75,8.42 32.16,12.25 50.09,14.32 6.49,0.75 25.39,0.54 32.5,-0.37 z"
       fill="#fefefe"
       id="path3" />
  </g>
</svg>
