<?xml version="1.0" encoding="UTF-8" standalone="no"?>
<!-- Created with Inkscape (http://www.inkscape.org/) -->

<svg
   width="45.961082mm"
   height="50.772491mm"
   viewBox="0 0 45.961082 50.772491"
   version="1.1"
   id="svg1"
   xml:space="preserve"
   xmlns="http://www.w3.org/2000/svg"
   xmlns:svg="http://www.w3.org/2000/svg"><defs
     id="defs1"><clipPath
       id="clip-path-background-color-0-1"><rect
         x="0"
         y="0"
         width="400"
         height="400"
         id="rect1-6" /></clipPath><clipPath
       id="clip-path-dot-color-0-8"><rect
         x="98"
         y="2"
         width="12"
         height="12"
         id="rect2" /><rect
         x="110"
         y="2"
         width="12"
         height="12"
         id="rect3-3" /><rect
         x="122"
         y="2"
         width="12"
         height="12"
         id="rect4" /><rect
         x="182"
         y="2"
         width="12"
         height="12"
         id="rect5-1" /><rect
         x="218"
         y="2"
         width="12"
         height="12"
         id="rect6-4" /><rect
         x="242"
         y="2"
         width="12"
         height="12"
         id="rect7-8" /><rect
         x="254"
         y="2"
         width="12"
         height="12"
         id="rect8" /><rect
         x="278"
         y="2"
         width="12"
         height="12"
         id="rect9" /><rect
         x="290"
         y="2"
         width="12"
         height="12"
         id="rect10-49" /><rect
         x="98"
         y="14"
         width="12"
         height="12"
         id="rect11-2" /><rect
         x="122"
         y="14"
         width="12"
         height="12"
         id="rect12-0" /><rect
         x="134"
         y="14"
         width="12"
         height="12"
         id="rect13" /><rect
         x="146"
         y="14"
         width="12"
         height="12"
         id="rect14-7" /><rect
         x="158"
         y="14"
         width="12"
         height="12"
         id="rect15-0" /><rect
         x="206"
         y="14"
         width="12"
         height="12"
         id="rect16-6" /><rect
         x="254"
         y="14"
         width="12"
         height="12"
         id="rect17" /><rect
         x="290"
         y="14"
         width="12"
         height="12"
         id="rect18-0" /><rect
         x="98"
         y="26"
         width="12"
         height="12"
         id="rect19-7" /><rect
         x="110"
         y="26"
         width="12"
         height="12"
         id="rect20-0" /><rect
         x="158"
         y="26"
         width="12"
         height="12"
         id="rect21" /><rect
         x="170"
         y="26"
         width="12"
         height="12"
         id="rect22-5" /><rect
         x="182"
         y="26"
         width="12"
         height="12"
         id="rect23-6" /><rect
         x="194"
         y="26"
         width="12"
         height="12"
         id="rect24-73" /><rect
         x="206"
         y="26"
         width="12"
         height="12"
         id="rect25-8" /><rect
         x="254"
         y="26"
         width="12"
         height="12"
         id="rect26-4" /><rect
         x="266"
         y="26"
         width="12"
         height="12"
         id="rect27-9" /><rect
         x="278"
         y="26"
         width="12"
         height="12"
         id="rect28-2" /><rect
         x="290"
         y="26"
         width="12"
         height="12"
         id="rect29-6" /><rect
         x="266"
         y="38"
         width="12"
         height="12"
         id="rect30-5" /><rect
         x="278"
         y="38"
         width="12"
         height="12"
         id="rect31-7" /><rect
         x="290"
         y="38"
         width="12"
         height="12"
         id="rect32-7" /><rect
         x="122"
         y="50"
         width="12"
         height="12"
         id="rect33-4" /><rect
         x="134"
         y="50"
         width="12"
         height="12"
         id="rect34-5" /><rect
         x="182"
         y="50"
         width="12"
         height="12"
         id="rect35-7" /><rect
         x="218"
         y="50"
         width="12"
         height="12"
         id="rect36-9" /><rect
         x="230"
         y="50"
         width="12"
         height="12"
         id="rect37-8" /><rect
         x="242"
         y="50"
         width="12"
         height="12"
         id="rect38-3" /><rect
         x="254"
         y="50"
         width="12"
         height="12"
         id="rect39-02" /><rect
         x="266"
         y="50"
         width="12"
         height="12"
         id="rect40-2" /><rect
         x="98"
         y="62"
         width="12"
         height="12"
         id="rect41-3" /><rect
         x="110"
         y="62"
         width="12"
         height="12"
         id="rect42-6" /><rect
         x="122"
         y="62"
         width="12"
         height="12"
         id="rect43" /><rect
         x="146"
         y="62"
         width="12"
         height="12"
         id="rect44" /><rect
         x="158"
         y="62"
         width="12"
         height="12"
         id="rect45" /><rect
         x="170"
         y="62"
         width="12"
         height="12"
         id="rect46-7" /><rect
         x="194"
         y="62"
         width="12"
         height="12"
         id="rect47-1" /><rect
         x="218"
         y="62"
         width="12"
         height="12"
         id="rect48" /><rect
         x="230"
         y="62"
         width="12"
         height="12"
         id="rect49-5" /><rect
         x="254"
         y="62"
         width="12"
         height="12"
         id="rect50" /><rect
         x="266"
         y="62"
         width="12"
         height="12"
         id="rect51" /><rect
         x="278"
         y="62"
         width="12"
         height="12"
         id="rect52-5" /><rect
         x="290"
         y="62"
         width="12"
         height="12"
         id="rect53-4" /><rect
         x="98"
         y="74"
         width="12"
         height="12"
         id="rect54-0" /><rect
         x="122"
         y="74"
         width="12"
         height="12"
         id="rect55-2" /><rect
         x="146"
         y="74"
         width="12"
         height="12"
         id="rect56-6" /><rect
         x="170"
         y="74"
         width="12"
         height="12"
         id="rect57" /><rect
         x="194"
         y="74"
         width="12"
         height="12"
         id="rect58" /><rect
         x="218"
         y="74"
         width="12"
         height="12"
         id="rect59-0" /><rect
         x="242"
         y="74"
         width="12"
         height="12"
         id="rect60-6" /><rect
         x="266"
         y="74"
         width="12"
         height="12"
         id="rect61-1" /><rect
         x="290"
         y="74"
         width="12"
         height="12"
         id="rect62-1" /><rect
         x="98"
         y="86"
         width="12"
         height="12"
         id="rect63-1" /><rect
         x="122"
         y="86"
         width="12"
         height="12"
         id="rect64" /><rect
         x="134"
         y="86"
         width="12"
         height="12"
         id="rect65" /><rect
         x="146"
         y="86"
         width="12"
         height="12"
         id="rect66-7" /><rect
         x="194"
         y="86"
         width="12"
         height="12"
         id="rect67" /><rect
         x="206"
         y="86"
         width="12"
         height="12"
         id="rect68" /><rect
         x="218"
         y="86"
         width="12"
         height="12"
         id="rect69" /><rect
         x="230"
         y="86"
         width="12"
         height="12"
         id="rect70-3" /><rect
         x="242"
         y="86"
         width="12"
         height="12"
         id="rect71-0" /><rect
         x="254"
         y="86"
         width="12"
         height="12"
         id="rect72-0" /><rect
         x="278"
         y="86"
         width="12"
         height="12"
         id="rect73-4" /><rect
         x="26"
         y="98"
         width="12"
         height="12"
         id="rect74-8" /><rect
         x="38"
         y="98"
         width="12"
         height="12"
         id="rect75-3" /><rect
         x="50"
         y="98"
         width="12"
         height="12"
         id="rect76-0" /><rect
         x="74"
         y="98"
         width="12"
         height="12"
         id="rect77-1" /><rect
         x="98"
         y="98"
         width="12"
         height="12"
         id="rect78-2" /><rect
         x="122"
         y="98"
         width="12"
         height="12"
         id="rect79" /><rect
         x="170"
         y="98"
         width="12"
         height="12"
         id="rect80" /><rect
         x="182"
         y="98"
         width="12"
         height="12"
         id="rect81-90" /><rect
         x="194"
         y="98"
         width="12"
         height="12"
         id="rect82-3" /><rect
         x="218"
         y="98"
         width="12"
         height="12"
         id="rect83-8" /><rect
         x="242"
         y="98"
         width="12"
         height="12"
         id="rect84-85" /><rect
         x="266"
         y="98"
         width="12"
         height="12"
         id="rect85-7" /><rect
         x="278"
         y="98"
         width="12"
         height="12"
         id="rect86-7" /><rect
         x="290"
         y="98"
         width="12"
         height="12"
         id="rect87-0" /><rect
         x="302"
         y="98"
         width="12"
         height="12"
         id="rect88-8" /><rect
         x="314"
         y="98"
         width="12"
         height="12"
         id="rect89-9" /><rect
         x="326"
         y="98"
         width="12"
         height="12"
         id="rect90" /><rect
         x="362"
         y="98"
         width="12"
         height="12"
         id="rect91-3" /><rect
         x="374"
         y="98"
         width="12"
         height="12"
         id="rect92" /><rect
         x="386"
         y="98"
         width="12"
         height="12"
         id="rect93" /><rect
         x="50"
         y="110"
         width="12"
         height="12"
         id="rect94" /><rect
         x="62"
         y="110"
         width="12"
         height="12"
         id="rect95-0" /><rect
         x="110"
         y="110"
         width="12"
         height="12"
         id="rect96-7" /><rect
         x="134"
         y="110"
         width="12"
         height="12"
         id="rect97-4" /><rect
         x="170"
         y="110"
         width="12"
         height="12"
         id="rect98-7" /><rect
         x="206"
         y="110"
         width="12"
         height="12"
         id="rect99-8" /><rect
         x="254"
         y="110"
         width="12"
         height="12"
         id="rect100-3" /><rect
         x="278"
         y="110"
         width="12"
         height="12"
         id="rect101-7" /><rect
         x="302"
         y="110"
         width="12"
         height="12"
         id="rect102-1" /><rect
         x="314"
         y="110"
         width="12"
         height="12"
         id="rect103" /><rect
         x="350"
         y="110"
         width="12"
         height="12"
         id="rect104" /><rect
         x="386"
         y="110"
         width="12"
         height="12"
         id="rect105" /><rect
         x="2"
         y="122"
         width="12"
         height="12"
         id="rect106-0" /><rect
         x="14"
         y="122"
         width="12"
         height="12"
         id="rect107-0" /><rect
         x="26"
         y="122"
         width="12"
         height="12"
         id="rect108-8" /><rect
         x="50"
         y="122"
         width="12"
         height="12"
         id="rect109-3" /><rect
         x="62"
         y="122"
         width="12"
         height="12"
         id="rect110-4" /><rect
         x="74"
         y="122"
         width="12"
         height="12"
         id="rect111-5" /><rect
         x="110"
         y="122"
         width="12"
         height="12"
         id="rect112" /><rect
         x="134"
         y="122"
         width="12"
         height="12"
         id="rect113-0" /><rect
         x="158"
         y="122"
         width="12"
         height="12"
         id="rect114" /><rect
         x="194"
         y="122"
         width="12"
         height="12"
         id="rect115" /><rect
         x="206"
         y="122"
         width="12"
         height="12"
         id="rect116" /><rect
         x="230"
         y="122"
         width="12"
         height="12"
         id="rect117" /><rect
         x="254"
         y="122"
         width="12"
         height="12"
         id="rect118" /><rect
         x="302"
         y="122"
         width="12"
         height="12"
         id="rect119-1" /><rect
         x="326"
         y="122"
         width="12"
         height="12"
         id="rect120-4" /><rect
         x="374"
         y="122"
         width="12"
         height="12"
         id="rect121-5" /><rect
         x="26"
         y="134"
         width="12"
         height="12"
         id="rect122-6" /><rect
         x="86"
         y="134"
         width="12"
         height="12"
         id="rect123-2" /><rect
         x="98"
         y="134"
         width="12"
         height="12"
         id="rect124-0" /><rect
         x="110"
         y="134"
         width="12"
         height="12"
         id="rect125-3" /><rect
         x="134"
         y="134"
         width="12"
         height="12"
         id="rect126-5" /><rect
         x="146"
         y="134"
         width="12"
         height="12"
         id="rect127" /><rect
         x="218"
         y="134"
         width="12"
         height="12"
         id="rect128" /><rect
         x="230"
         y="134"
         width="12"
         height="12"
         id="rect129" /><rect
         x="254"
         y="134"
         width="12"
         height="12"
         id="rect130-6" /><rect
         x="266"
         y="134"
         width="12"
         height="12"
         id="rect131-6" /><rect
         x="278"
         y="134"
         width="12"
         height="12"
         id="rect132-6" /><rect
         x="350"
         y="134"
         width="12"
         height="12"
         id="rect133-7" /><rect
         x="362"
         y="134"
         width="12"
         height="12"
         id="rect134-6" /><rect
         x="386"
         y="134"
         width="12"
         height="12"
         id="rect135-7" /><rect
         x="2"
         y="146"
         width="12"
         height="12"
         id="rect136" /><rect
         x="14"
         y="146"
         width="12"
         height="12"
         id="rect137-4" /><rect
         x="62"
         y="146"
         width="12"
         height="12"
         id="rect138" /><rect
         x="74"
         y="146"
         width="12"
         height="12"
         id="rect139-7" /><rect
         x="110"
         y="146"
         width="12"
         height="12"
         id="rect140-1" /><rect
         x="122"
         y="146"
         width="12"
         height="12"
         id="rect141-9" /><rect
         x="254"
         y="146"
         width="12"
         height="12"
         id="rect142-1" /><rect
         x="278"
         y="146"
         width="12"
         height="12"
         id="rect143-6" /><rect
         x="290"
         y="146"
         width="12"
         height="12"
         id="rect144-2" /><rect
         x="302"
         y="146"
         width="12"
         height="12"
         id="rect145-7" /><rect
         x="326"
         y="146"
         width="12"
         height="12"
         id="rect146-2" /><rect
         x="338"
         y="146"
         width="12"
         height="12"
         id="rect147-7" /><rect
         x="374"
         y="146"
         width="12"
         height="12"
         id="rect148-6" /><rect
         x="2"
         y="158"
         width="12"
         height="12"
         id="rect149-5" /><rect
         x="38"
         y="158"
         width="12"
         height="12"
         id="rect150-1" /><rect
         x="110"
         y="158"
         width="12"
         height="12"
         id="rect151-3" /><rect
         x="266"
         y="158"
         width="12"
         height="12"
         id="rect152-9" /><rect
         x="278"
         y="158"
         width="12"
         height="12"
         id="rect153" /><rect
         x="314"
         y="158"
         width="12"
         height="12"
         id="rect154" /><rect
         x="362"
         y="158"
         width="12"
         height="12"
         id="rect155-9" /><rect
         x="386"
         y="158"
         width="12"
         height="12"
         id="rect156-5" /><rect
         x="2"
         y="170"
         width="12"
         height="12"
         id="rect157" /><rect
         x="38"
         y="170"
         width="12"
         height="12"
         id="rect158" /><rect
         x="74"
         y="170"
         width="12"
         height="12"
         id="rect159-9" /><rect
         x="86"
         y="170"
         width="12"
         height="12"
         id="rect160-2" /><rect
         x="98"
         y="170"
         width="12"
         height="12"
         id="rect161" /><rect
         x="134"
         y="170"
         width="12"
         height="12"
         id="rect162" /><rect
         x="266"
         y="170"
         width="12"
         height="12"
         id="rect163-6" /><rect
         x="290"
         y="170"
         width="12"
         height="12"
         id="rect164-5" /><rect
         x="338"
         y="170"
         width="12"
         height="12"
         id="rect165-3" /><rect
         x="350"
         y="170"
         width="12"
         height="12"
         id="rect166" /><rect
         x="362"
         y="170"
         width="12"
         height="12"
         id="rect167" /><rect
         x="374"
         y="170"
         width="12"
         height="12"
         id="rect168" /><rect
         x="26"
         y="182"
         width="12"
         height="12"
         id="rect169-2" /><rect
         x="62"
         y="182"
         width="12"
         height="12"
         id="rect170-4" /><rect
         x="86"
         y="182"
         width="12"
         height="12"
         id="rect171-4" /><rect
         x="98"
         y="182"
         width="12"
         height="12"
         id="rect172-4" /><rect
         x="110"
         y="182"
         width="12"
         height="12"
         id="rect173-2" /><rect
         x="122"
         y="182"
         width="12"
         height="12"
         id="rect174" /><rect
         x="254"
         y="182"
         width="12"
         height="12"
         id="rect175" /><rect
         x="266"
         y="182"
         width="12"
         height="12"
         id="rect176-7" /><rect
         x="278"
         y="182"
         width="12"
         height="12"
         id="rect177-9" /><rect
         x="290"
         y="182"
         width="12"
         height="12"
         id="rect178-2" /><rect
         x="326"
         y="182"
         width="12"
         height="12"
         id="rect179-37" /><rect
         x="362"
         y="182"
         width="12"
         height="12"
         id="rect180-3" /><rect
         x="374"
         y="182"
         width="12"
         height="12"
         id="rect181-1" /><rect
         x="386"
         y="182"
         width="12"
         height="12"
         id="rect182-5" /><rect
         x="14"
         y="194"
         width="12"
         height="12"
         id="rect183-7" /><rect
         x="26"
         y="194"
         width="12"
         height="12"
         id="rect184-8" /><rect
         x="62"
         y="194"
         width="12"
         height="12"
         id="rect185-5" /><rect
         x="74"
         y="194"
         width="12"
         height="12"
         id="rect186-8" /><rect
         x="86"
         y="194"
         width="12"
         height="12"
         id="rect187-3" /><rect
         x="98"
         y="194"
         width="12"
         height="12"
         id="rect188-24" /><rect
         x="134"
         y="194"
         width="12"
         height="12"
         id="rect189-11" /><rect
         x="302"
         y="194"
         width="12"
         height="12"
         id="rect190-5" /><rect
         x="338"
         y="194"
         width="12"
         height="12"
         id="rect191-95" /><rect
         x="374"
         y="194"
         width="12"
         height="12"
         id="rect192-1" /><rect
         x="386"
         y="194"
         width="12"
         height="12"
         id="rect193-0" /><rect
         x="2"
         y="206"
         width="12"
         height="12"
         id="rect194-6" /><rect
         x="38"
         y="206"
         width="12"
         height="12"
         id="rect195-4" /><rect
         x="50"
         y="206"
         width="12"
         height="12"
         id="rect196-5" /><rect
         x="86"
         y="206"
         width="12"
         height="12"
         id="rect197-3" /><rect
         x="254"
         y="206"
         width="12"
         height="12"
         id="rect198-08" /><rect
         x="278"
         y="206"
         width="12"
         height="12"
         id="rect199-9" /><rect
         x="290"
         y="206"
         width="12"
         height="12"
         id="rect200-1" /><rect
         x="302"
         y="206"
         width="12"
         height="12"
         id="rect201-3" /><rect
         x="314"
         y="206"
         width="12"
         height="12"
         id="rect202-4" /><rect
         x="386"
         y="206"
         width="12"
         height="12"
         id="rect203-7" /><rect
         x="2"
         y="218"
         width="12"
         height="12"
         id="rect204-4" /><rect
         x="26"
         y="218"
         width="12"
         height="12"
         id="rect205-6" /><rect
         x="38"
         y="218"
         width="12"
         height="12"
         id="rect206-3" /><rect
         x="50"
         y="218"
         width="12"
         height="12"
         id="rect207-6" /><rect
         x="62"
         y="218"
         width="12"
         height="12"
         id="rect208-5" /><rect
         x="74"
         y="218"
         width="12"
         height="12"
         id="rect209-2" /><rect
         x="98"
         y="218"
         width="12"
         height="12"
         id="rect210-81" /><rect
         x="110"
         y="218"
         width="12"
         height="12"
         id="rect211-0" /><rect
         x="122"
         y="218"
         width="12"
         height="12"
         id="rect212-3" /><rect
         x="134"
         y="218"
         width="12"
         height="12"
         id="rect213-1" /><rect
         x="302"
         y="218"
         width="12"
         height="12"
         id="rect214" /><rect
         x="314"
         y="218"
         width="12"
         height="12"
         id="rect215-5" /><rect
         x="362"
         y="218"
         width="12"
         height="12"
         id="rect216" /><rect
         x="374"
         y="218"
         width="12"
         height="12"
         id="rect217" /><rect
         x="14"
         y="230"
         width="12"
         height="12"
         id="rect218" /><rect
         x="26"
         y="230"
         width="12"
         height="12"
         id="rect219-5" /><rect
         x="98"
         y="230"
         width="12"
         height="12"
         id="rect220" /><rect
         x="134"
         y="230"
         width="12"
         height="12"
         id="rect221-2" /><rect
         x="254"
         y="230"
         width="12"
         height="12"
         id="rect222-2" /><rect
         x="266"
         y="230"
         width="12"
         height="12"
         id="rect223-1" /><rect
         x="278"
         y="230"
         width="12"
         height="12"
         id="rect224-7" /><rect
         x="290"
         y="230"
         width="12"
         height="12"
         id="rect225-4" /><rect
         x="302"
         y="230"
         width="12"
         height="12"
         id="rect226" /><rect
         x="314"
         y="230"
         width="12"
         height="12"
         id="rect227" /><rect
         x="326"
         y="230"
         width="12"
         height="12"
         id="rect228-8" /><rect
         x="338"
         y="230"
         width="12"
         height="12"
         id="rect229-2" /><rect
         x="350"
         y="230"
         width="12"
         height="12"
         id="rect230-3" /><rect
         x="362"
         y="230"
         width="12"
         height="12"
         id="rect231-6" /><rect
         x="386"
         y="230"
         width="12"
         height="12"
         id="rect232-3" /><rect
         x="26"
         y="242"
         width="12"
         height="12"
         id="rect233-0" /><rect
         x="38"
         y="242"
         width="12"
         height="12"
         id="rect234" /><rect
         x="74"
         y="242"
         width="12"
         height="12"
         id="rect235-3" /><rect
         x="122"
         y="242"
         width="12"
         height="12"
         id="rect236" /><rect
         x="266"
         y="242"
         width="12"
         height="12"
         id="rect237-5" /><rect
         x="290"
         y="242"
         width="12"
         height="12"
         id="rect238-2" /><rect
         x="302"
         y="242"
         width="12"
         height="12"
         id="rect239-8" /><rect
         x="338"
         y="242"
         width="12"
         height="12"
         id="rect240-0" /><rect
         x="350"
         y="242"
         width="12"
         height="12"
         id="rect241-7" /><rect
         x="374"
         y="242"
         width="12"
         height="12"
         id="rect242-2" /><rect
         x="2"
         y="254"
         width="12"
         height="12"
         id="rect243-2" /><rect
         x="14"
         y="254"
         width="12"
         height="12"
         id="rect244" /><rect
         x="38"
         y="254"
         width="12"
         height="12"
         id="rect245" /><rect
         x="62"
         y="254"
         width="12"
         height="12"
         id="rect246-5" /><rect
         x="122"
         y="254"
         width="12"
         height="12"
         id="rect247-9" /><rect
         x="146"
         y="254"
         width="12"
         height="12"
         id="rect248-1" /><rect
         x="158"
         y="254"
         width="12"
         height="12"
         id="rect249-0" /><rect
         x="182"
         y="254"
         width="12"
         height="12"
         id="rect250-8" /><rect
         x="206"
         y="254"
         width="12"
         height="12"
         id="rect251-5" /><rect
         x="230"
         y="254"
         width="12"
         height="12"
         id="rect252-0" /><rect
         x="242"
         y="254"
         width="12"
         height="12"
         id="rect253-7" /><rect
         x="254"
         y="254"
         width="12"
         height="12"
         id="rect254" /><rect
         x="290"
         y="254"
         width="12"
         height="12"
         id="rect255-9" /><rect
         x="314"
         y="254"
         width="12"
         height="12"
         id="rect256-0" /><rect
         x="386"
         y="254"
         width="12"
         height="12"
         id="rect257-5" /><rect
         x="2"
         y="266"
         width="12"
         height="12"
         id="rect258-3" /><rect
         x="62"
         y="266"
         width="12"
         height="12"
         id="rect259-4" /><rect
         x="74"
         y="266"
         width="12"
         height="12"
         id="rect260-10" /><rect
         x="86"
         y="266"
         width="12"
         height="12"
         id="rect261-4" /><rect
         x="98"
         y="266"
         width="12"
         height="12"
         id="rect262-8" /><rect
         x="134"
         y="266"
         width="12"
         height="12"
         id="rect263-5" /><rect
         x="194"
         y="266"
         width="12"
         height="12"
         id="rect264-9" /><rect
         x="206"
         y="266"
         width="12"
         height="12"
         id="rect265-2" /><rect
         x="254"
         y="266"
         width="12"
         height="12"
         id="rect266-5" /><rect
         x="326"
         y="266"
         width="12"
         height="12"
         id="rect267-4" /><rect
         x="338"
         y="266"
         width="12"
         height="12"
         id="rect268-13" /><rect
         x="350"
         y="266"
         width="12"
         height="12"
         id="rect269-9" /><rect
         x="362"
         y="266"
         width="12"
         height="12"
         id="rect270-5" /><rect
         x="2"
         y="278"
         width="12"
         height="12"
         id="rect271-8" /><rect
         x="38"
         y="278"
         width="12"
         height="12"
         id="rect272-2" /><rect
         x="50"
         y="278"
         width="12"
         height="12"
         id="rect273" /><rect
         x="62"
         y="278"
         width="12"
         height="12"
         id="rect274" /><rect
         x="86"
         y="278"
         width="12"
         height="12"
         id="rect275-7" /><rect
         x="98"
         y="278"
         width="12"
         height="12"
         id="rect276-9" /><rect
         x="110"
         y="278"
         width="12"
         height="12"
         id="rect277-6" /><rect
         x="122"
         y="278"
         width="12"
         height="12"
         id="rect278-1" /><rect
         x="146"
         y="278"
         width="12"
         height="12"
         id="rect279-7" /><rect
         x="194"
         y="278"
         width="12"
         height="12"
         id="rect280-7" /><rect
         x="206"
         y="278"
         width="12"
         height="12"
         id="rect281-1" /><rect
         x="218"
         y="278"
         width="12"
         height="12"
         id="rect282-9" /><rect
         x="254"
         y="278"
         width="12"
         height="12"
         id="rect283-0" /><rect
         x="266"
         y="278"
         width="12"
         height="12"
         id="rect284-3" /><rect
         x="350"
         y="278"
         width="12"
         height="12"
         id="rect285-4" /><rect
         x="362"
         y="278"
         width="12"
         height="12"
         id="rect286-1" /><rect
         x="374"
         y="278"
         width="12"
         height="12"
         id="rect287-7" /><rect
         x="2"
         y="290"
         width="12"
         height="12"
         id="rect288-5" /><rect
         x="74"
         y="290"
         width="12"
         height="12"
         id="rect289-3" /><rect
         x="86"
         y="290"
         width="12"
         height="12"
         id="rect290-3" /><rect
         x="122"
         y="290"
         width="12"
         height="12"
         id="rect291-2" /><rect
         x="158"
         y="290"
         width="12"
         height="12"
         id="rect292-4" /><rect
         x="182"
         y="290"
         width="12"
         height="12"
         id="rect293" /><rect
         x="194"
         y="290"
         width="12"
         height="12"
         id="rect294" /><rect
         x="218"
         y="290"
         width="12"
         height="12"
         id="rect295-1" /><rect
         x="230"
         y="290"
         width="12"
         height="12"
         id="rect296" /><rect
         x="266"
         y="290"
         width="12"
         height="12"
         id="rect297-2" /><rect
         x="278"
         y="290"
         width="12"
         height="12"
         id="rect298-9" /><rect
         x="290"
         y="290"
         width="12"
         height="12"
         id="rect299-0" /><rect
         x="302"
         y="290"
         width="12"
         height="12"
         id="rect300-8" /><rect
         x="314"
         y="290"
         width="12"
         height="12"
         id="rect301-7" /><rect
         x="326"
         y="290"
         width="12"
         height="12"
         id="rect302-4" /><rect
         x="338"
         y="290"
         width="12"
         height="12"
         id="rect303" /><rect
         x="374"
         y="290"
         width="12"
         height="12"
         id="rect304" /><rect
         x="98"
         y="302"
         width="12"
         height="12"
         id="rect305-5" /><rect
         x="170"
         y="302"
         width="12"
         height="12"
         id="rect306-6" /><rect
         x="194"
         y="302"
         width="12"
         height="12"
         id="rect307-8" /><rect
         x="206"
         y="302"
         width="12"
         height="12"
         id="rect308-0" /><rect
         x="230"
         y="302"
         width="12"
         height="12"
         id="rect309-7" /><rect
         x="266"
         y="302"
         width="12"
         height="12"
         id="rect310-7" /><rect
         x="290"
         y="302"
         width="12"
         height="12"
         id="rect311-4" /><rect
         x="338"
         y="302"
         width="12"
         height="12"
         id="rect312-3" /><rect
         x="362"
         y="302"
         width="12"
         height="12"
         id="rect313-1" /><rect
         x="386"
         y="302"
         width="12"
         height="12"
         id="rect314" /><rect
         x="122"
         y="314"
         width="12"
         height="12"
         id="rect315-36" /><rect
         x="146"
         y="314"
         width="12"
         height="12"
         id="rect316-3" /><rect
         x="170"
         y="314"
         width="12"
         height="12"
         id="rect317-0" /><rect
         x="182"
         y="314"
         width="12"
         height="12"
         id="rect318-1" /><rect
         x="242"
         y="314"
         width="12"
         height="12"
         id="rect319-9" /><rect
         x="266"
         y="314"
         width="12"
         height="12"
         id="rect320-0" /><rect
         x="278"
         y="314"
         width="12"
         height="12"
         id="rect321-4" /><rect
         x="290"
         y="314"
         width="12"
         height="12"
         id="rect322-2" /><rect
         x="314"
         y="314"
         width="12"
         height="12"
         id="rect323-9" /><rect
         x="338"
         y="314"
         width="12"
         height="12"
         id="rect324-3" /><rect
         x="350"
         y="314"
         width="12"
         height="12"
         id="rect325-1" /><rect
         x="362"
         y="314"
         width="12"
         height="12"
         id="rect326-4" /><rect
         x="374"
         y="314"
         width="12"
         height="12"
         id="rect327-8" /><rect
         x="134"
         y="326"
         width="12"
         height="12"
         id="rect328-2" /><rect
         x="182"
         y="326"
         width="12"
         height="12"
         id="rect329-0" /><rect
         x="206"
         y="326"
         width="12"
         height="12"
         id="rect330-5" /><rect
         x="218"
         y="326"
         width="12"
         height="12"
         id="rect331-5" /><rect
         x="230"
         y="326"
         width="12"
         height="12"
         id="rect332-9" /><rect
         x="278"
         y="326"
         width="12"
         height="12"
         id="rect333-3" /><rect
         x="290"
         y="326"
         width="12"
         height="12"
         id="rect334-2" /><rect
         x="338"
         y="326"
         width="12"
         height="12"
         id="rect335-8" /><rect
         x="350"
         y="326"
         width="12"
         height="12"
         id="rect336-7" /><rect
         x="362"
         y="326"
         width="12"
         height="12"
         id="rect337-4" /><rect
         x="374"
         y="326"
         width="12"
         height="12"
         id="rect338-8" /><rect
         x="386"
         y="326"
         width="12"
         height="12"
         id="rect339-1" /><rect
         x="98"
         y="338"
         width="12"
         height="12"
         id="rect340-4" /><rect
         x="110"
         y="338"
         width="12"
         height="12"
         id="rect341-3" /><rect
         x="122"
         y="338"
         width="12"
         height="12"
         id="rect342-5" /><rect
         x="134"
         y="338"
         width="12"
         height="12"
         id="rect343-5" /><rect
         x="146"
         y="338"
         width="12"
         height="12"
         id="rect344-2" /><rect
         x="158"
         y="338"
         width="12"
         height="12"
         id="rect345-6" /><rect
         x="182"
         y="338"
         width="12"
         height="12"
         id="rect346-8" /><rect
         x="254"
         y="338"
         width="12"
         height="12"
         id="rect347-9" /><rect
         x="266"
         y="338"
         width="12"
         height="12"
         id="rect348-2" /><rect
         x="290"
         y="338"
         width="12"
         height="12"
         id="rect349-9" /><rect
         x="302"
         y="338"
         width="12"
         height="12"
         id="rect350-5" /><rect
         x="314"
         y="338"
         width="12"
         height="12"
         id="rect351-9" /><rect
         x="326"
         y="338"
         width="12"
         height="12"
         id="rect352-4" /><rect
         x="338"
         y="338"
         width="12"
         height="12"
         id="rect353-5" /><rect
         x="374"
         y="338"
         width="12"
         height="12"
         id="rect354-0" /><rect
         x="386"
         y="338"
         width="12"
         height="12"
         id="rect355-5" /><rect
         x="98"
         y="350"
         width="12"
         height="12"
         id="rect356-8" /><rect
         x="158"
         y="350"
         width="12"
         height="12"
         id="rect357" /><rect
         x="194"
         y="350"
         width="12"
         height="12"
         id="rect358-8" /><rect
         x="218"
         y="350"
         width="12"
         height="12"
         id="rect359-0" /><rect
         x="302"
         y="350"
         width="12"
         height="12"
         id="rect360-1" /><rect
         x="338"
         y="350"
         width="12"
         height="12"
         id="rect361-3" /><rect
         x="350"
         y="350"
         width="12"
         height="12"
         id="rect362-2" /><rect
         x="374"
         y="350"
         width="12"
         height="12"
         id="rect363" /><rect
         x="98"
         y="362"
         width="12"
         height="12"
         id="rect364-2" /><rect
         x="122"
         y="362"
         width="12"
         height="12"
         id="rect365-2" /><rect
         x="146"
         y="362"
         width="12"
         height="12"
         id="rect366-7" /><rect
         x="170"
         y="362"
         width="12"
         height="12"
         id="rect367-0" /><rect
         x="182"
         y="362"
         width="12"
         height="12"
         id="rect368" /><rect
         x="206"
         y="362"
         width="12"
         height="12"
         id="rect369" /><rect
         x="218"
         y="362"
         width="12"
         height="12"
         id="rect370" /><rect
         x="230"
         y="362"
         width="12"
         height="12"
         id="rect371" /><rect
         x="242"
         y="362"
         width="12"
         height="12"
         id="rect372" /><rect
         x="254"
         y="362"
         width="12"
         height="12"
         id="rect373" /><rect
         x="290"
         y="362"
         width="12"
         height="12"
         id="rect374" /><rect
         x="302"
         y="362"
         width="12"
         height="12"
         id="rect375" /><rect
         x="314"
         y="362"
         width="12"
         height="12"
         id="rect376" /><rect
         x="110"
         y="374"
         width="12"
         height="12"
         id="rect377" /><rect
         x="134"
         y="374"
         width="12"
         height="12"
         id="rect378" /><rect
         x="158"
         y="374"
         width="12"
         height="12"
         id="rect379" /><rect
         x="170"
         y="374"
         width="12"
         height="12"
         id="rect380" /><rect
         x="182"
         y="374"
         width="12"
         height="12"
         id="rect381" /><rect
         x="194"
         y="374"
         width="12"
         height="12"
         id="rect382" /><rect
         x="206"
         y="374"
         width="12"
         height="12"
         id="rect383" /><rect
         x="218"
         y="374"
         width="12"
         height="12"
         id="rect384" /><rect
         x="242"
         y="374"
         width="12"
         height="12"
         id="rect385" /><rect
         x="266"
         y="374"
         width="12"
         height="12"
         id="rect386" /><rect
         x="314"
         y="374"
         width="12"
         height="12"
         id="rect387" /><rect
         x="326"
         y="374"
         width="12"
         height="12"
         id="rect388" /><rect
         x="350"
         y="374"
         width="12"
         height="12"
         id="rect389" /><rect
         x="362"
         y="374"
         width="12"
         height="12"
         id="rect390" /><rect
         x="122"
         y="386"
         width="12"
         height="12"
         id="rect391" /><rect
         x="146"
         y="386"
         width="12"
         height="12"
         id="rect392" /><rect
         x="170"
         y="386"
         width="12"
         height="12"
         id="rect393" /><rect
         x="182"
         y="386"
         width="12"
         height="12"
         id="rect394" /><rect
         x="206"
         y="386"
         width="12"
         height="12"
         id="rect395" /><rect
         x="230"
         y="386"
         width="12"
         height="12"
         id="rect396" /><rect
         x="242"
         y="386"
         width="12"
         height="12"
         id="rect397" /><rect
         x="278"
         y="386"
         width="12"
         height="12"
         id="rect398" /><rect
         x="290"
         y="386"
         width="12"
         height="12"
         id="rect399" /><rect
         x="374"
         y="386"
         width="12"
         height="12"
         id="rect400" /></clipPath><clipPath
       id="clip-path-corners-square-color-0-0-0-3"><path
         clip-rule="evenodd"
         d="M 2,2 V 86 H 86 V 2 Z M 14,14 H 74 V 74 H 14 Z"
         id="path400" /></clipPath><clipPath
       id="clip-path-corners-dot-color-0-0-0-1"><rect
         x="26"
         y="26"
         width="36"
         height="36"
         id="rect401" /></clipPath><clipPath
       id="clip-path-corners-square-color-1-0-0-3"><path
         clip-rule="evenodd"
         d="m 314,2 v 84 h 84 V 2 Z m 12,12 h 60 v 60 h -60 z"
         transform="rotate(90,356,44)"
         id="path401" /></clipPath><clipPath
       id="clip-path-corners-dot-color-1-0-0-3"><rect
         x="338"
         y="26"
         width="36"
         height="36"
         transform="rotate(90,356,44)"
         id="rect402" /></clipPath><clipPath
       id="clip-path-corners-square-color-0-1-0-7"><path
         clip-rule="evenodd"
         d="m 2,314 v 84 h 84 v -84 z m 12,12 h 60 v 60 H 14 Z"
         transform="rotate(-90,44,356)"
         id="path402" /></clipPath><clipPath
       id="clip-path-corners-dot-color-0-1-0-0"><rect
         x="26"
         y="338"
         width="36"
         height="36"
         transform="rotate(-90,44,356)"
         id="rect403" /></clipPath></defs><g
     id="layer1"
     transform="translate(-78.021167,-32.51963)"><g
       id="g596"
       transform="matrix(0.07224607,0,0,0.07224607,86.715364,45.107022)"
       style="display:none;stroke-width:3.66226"><rect
         x="0"
         y="0"
         height="400"
         width="400"
         clip-path="url(#clip-path-background-color-0-1)"
         fill="#ffffff"
         id="rect589"
         style="stroke-width:3.66226" /><rect
         x="0"
         y="0"
         height="400"
         width="400"
         clip-path="url(#clip-path-dot-color-0-8)"
         fill="#0a0a0b"
         id="rect590"
         style="stroke-width:3.66226" /><rect
         x="2"
         y="2"
         height="84"
         width="84"
         clip-path="url(#clip-path-corners-square-color-0-0-0-3)"
         fill="#0a0a0b"
         id="rect591"
         style="stroke-width:3.66226" /><rect
         x="26"
         y="26"
         height="36"
         width="36"
         clip-path="url(#clip-path-corners-dot-color-0-0-0-1)"
         fill="#f5b82e"
         id="rect592"
         style="stroke-width:3.66226" /><rect
         x="314"
         y="2"
         height="84"
         width="84"
         clip-path="url(#clip-path-corners-square-color-1-0-0-3)"
         fill="#0a0a0b"
         id="rect593"
         style="stroke-width:3.66226" /><rect
         x="338"
         y="26"
         height="36"
         width="36"
         clip-path="url(#clip-path-corners-dot-color-1-0-0-3)"
         fill="#f5b82e"
         id="rect594"
         style="stroke-width:3.66226" /><rect
         x="2"
         y="314"
         height="84"
         width="84"
         clip-path="url(#clip-path-corners-square-color-0-1-0-7)"
         fill="#0a0a0b"
         id="rect595"
         style="stroke-width:3.66226" /><rect
         x="26"
         y="338"
         height="36"
         width="36"
         clip-path="url(#clip-path-corners-dot-color-0-1-0-0)"
         fill="#f5b82e"
         id="rect596"
         style="stroke-width:3.66226" /></g><path
       style="baseline-shift:baseline;display:inline;overflow:visible;vector-effect:none;fill:#ffc031;stroke-width:1;stroke-linecap:round;stroke-miterlimit:33.9;enable-background:accumulate;stop-color:#000000"
       d="m 78.021164,41.285322 c 4.47855,21.16523 3.77621,29.56327 3.10888,38.04758 18.38633,-0.17395 7.63885,-2.30667 42.852206,-0.35328 -4.25011,-35.32143 -1.79037,-28.92503 -2.19034,-40.30858 -0.89429,1.61885 -29.698636,2.3081 -43.770746,2.61428 z m 8.23786,3.22126 h 29.909306 v 29.90931 H 86.259024 Z"
       id="path596" /><path
       d="m 85.532924,81.457912 h -0.29226 q -0.0169,-0.0937 -0.0628,-0.16487 -0.0459,-0.0712 -0.1124,-0.12084 -0.0665,-0.0497 -0.14894,-0.0749 -0.0815,-0.0253 -0.1733,-0.0253 -0.1658,0 -0.29694,0.0834 -0.13021,0.0834 -0.20608,0.24449 -0.0749,0.16112 -0.0749,0.39343 0,0.23418 0.0749,0.3953 0.0759,0.16111 0.20702,0.24355 0.13114,0.0824 0.29507,0.0824 0.0909,0 0.17235,-0.0243 0.0824,-0.0253 0.14894,-0.074 0.0665,-0.0487 0.11241,-0.11897 0.0468,-0.0712 0.0646,-0.16299 l 0.29226,9.4e-4 q -0.0234,0.14144 -0.0909,0.26041 -0.0665,0.11803 -0.17142,0.20421 -0.10398,0.0852 -0.23793,0.13207 -0.13395,0.0468 -0.29226,0.0468 -0.24917,0 -0.44401,-0.11802 -0.19484,-0.11897 -0.30725,-0.34004 -0.11147,-0.22106 -0.11147,-0.52737 0,-0.30725 0.11241,-0.52738 0.11241,-0.22107 0.30725,-0.3391 0.19484,-0.11896 0.44307,-0.11896 0.15269,0 0.28477,0.044 0.13301,0.0431 0.23886,0.12739 0.10585,0.0834 0.17517,0.20421 0.0693,0.1199 0.0937,0.27446 z m 0.32411,1.29456 v -1.43882 h 0.28009 v 0.60325 h 0.13489 l 0.47492,-0.60325 h 0.34659 l -0.55736,0.69974 0.56391,0.73908 h -0.34752 l -0.43371,-0.57516 h -0.18172 v 0.57516 z m 1.87815,0.0319 q -0.13677,0 -0.2473,-0.0506 -0.11054,-0.0515 -0.17517,-0.14894 -0.0637,-0.0974 -0.0637,-0.23887 0,-0.12177 0.0468,-0.20046 0.0468,-0.0787 0.12646,-0.12459 0.0796,-0.0459 0.17798,-0.0693 0.0984,-0.0234 0.20046,-0.0356 0.12927,-0.015 0.20983,-0.0243 0.0806,-0.0102 0.11709,-0.0328 0.0365,-0.0225 0.0365,-0.0731 v -0.006 q 0,-0.12272 -0.0693,-0.19016 -0.0684,-0.0674 -0.20421,-0.0674 -0.14145,0 -0.22294,0.0628 -0.0806,0.0618 -0.11147,0.1377 l -0.26322,-0.06 q 0.0468,-0.13115 0.13676,-0.2117 0.0909,-0.0815 0.20889,-0.11803 0.11803,-0.0375 0.24823,-0.0375 0.0862,0 0.18267,0.0206 0.0974,0.0197 0.18172,0.0731 0.0852,0.0534 0.13957,0.15269 0.0543,0.0984 0.0543,0.25572 v 0.95547 h -0.27352 v -0.19672 h -0.0112 q -0.0272,0.0543 -0.0815,0.10679 -0.0543,0.0525 -0.13958,0.0871 -0.0852,0.0347 -0.2042,0.0347 z m 0.0609,-0.22482 q 0.11615,0 0.19858,-0.0459 0.0834,-0.0459 0.12646,-0.1199 0.044,-0.0749 0.044,-0.16018 v -0.18547 q -0.015,0.015 -0.0581,0.0281 -0.0421,0.0122 -0.0965,0.0215 -0.0543,0.008 -0.10585,0.0159 -0.0515,0.006 -0.0862,0.0112 -0.0815,0.0103 -0.14894,0.0347 -0.0665,0.0243 -0.10678,0.0703 -0.0393,0.045 -0.0393,0.1199 0,0.10398 0.0768,0.15737 0.0768,0.0525 0.19577,0.0525 z m 1.9971,-0.64728 v 0.24261 h -0.77936 v -0.24261 z m -0.70067,-0.59857 v 1.43882 h -0.27447 v -1.43882 z m 0.89645,0 v 1.43882 h -0.27353 v -1.43882 z m 0.64821,1.04633 0.63417,-1.04633 h 0.30163 v 1.43882 h -0.27446 v -1.04727 l -0.63136,1.04727 h -0.30444 v -1.43882 h 0.27446 z m 1.31236,0.93204 v -1.97837 h 0.27353 v 0.23325 h 0.0234 q 0.0243,-0.045 0.0703,-0.10398 0.0459,-0.059 0.12739,-0.10304 0.0815,-0.045 0.21545,-0.045 0.17423,0 0.31099,0.0881 0.13677,0.0881 0.21452,0.25385 0.0787,0.16581 0.0787,0.39905 0,0.23325 -0.0778,0.39998 -0.0777,0.16581 -0.21358,0.25573 -0.13583,0.089 -0.31006,0.089 -0.13114,0 -0.21451,-0.044 -0.0824,-0.044 -0.12927,-0.10303 -0.0468,-0.059 -0.0721,-0.10492 h -0.0169 v 0.76343 z m 0.27447,-1.25896 q 0,0.15175 0.044,0.26603 0.044,0.11428 0.1274,0.17892 0.0834,0.0637 0.20421,0.0637 0.12552,0 0.20982,-0.0665 0.0843,-0.0675 0.1274,-0.18267 0.044,-0.11521 0.044,-0.25947 0,-0.14238 -0.0431,-0.25573 -0.0421,-0.11334 -0.1274,-0.17891 -0.0843,-0.0656 -0.21076,-0.0656 -0.12177,0 -0.20608,0.0628 -0.0834,0.0628 -0.12646,0.17517 -0.0431,0.1124 -0.0431,0.26228 z m 1.77229,0.75126 q -0.13677,0 -0.2473,-0.0506 -0.11053,-0.0515 -0.17517,-0.14894 -0.0637,-0.0974 -0.0637,-0.23887 0,-0.12177 0.0468,-0.20046 0.0468,-0.0787 0.12646,-0.12459 0.0796,-0.0459 0.17798,-0.0693 0.0984,-0.0234 0.20046,-0.0356 0.12927,-0.015 0.20983,-0.0243 0.0806,-0.0102 0.11709,-0.0328 0.0365,-0.0225 0.0365,-0.0731 v -0.006 q 0,-0.12272 -0.0693,-0.19016 -0.0684,-0.0674 -0.20421,-0.0674 -0.14145,0 -0.22294,0.0628 -0.0806,0.0618 -0.11147,0.1377 l -0.26322,-0.06 q 0.0468,-0.13115 0.13676,-0.2117 0.0909,-0.0815 0.20889,-0.11803 0.11803,-0.0375 0.24823,-0.0375 0.0862,0 0.18267,0.0206 0.0974,0.0197 0.18172,0.0731 0.0852,0.0534 0.13958,0.15269 0.0543,0.0984 0.0543,0.25572 v 0.95547 h -0.27352 v -0.19672 h -0.0112 q -0.0272,0.0543 -0.0815,0.10679 -0.0543,0.0525 -0.13957,0.0871 -0.0852,0.0347 -0.20421,0.0347 z m 0.0609,-0.22482 q 0.11615,0 0.19858,-0.0459 0.0834,-0.0459 0.12646,-0.1199 0.044,-0.0749 0.044,-0.16018 v -0.18547 q -0.015,0.015 -0.0581,0.0281 -0.0421,0.0122 -0.0965,0.0215 -0.0543,0.008 -0.10584,0.0159 -0.0515,0.006 -0.0862,0.0112 -0.0815,0.0103 -0.14894,0.0347 -0.0665,0.0243 -0.10679,0.0703 -0.0393,0.045 -0.0393,0.1199 0,0.10398 0.0768,0.15737 0.0768,0.0525 0.19578,0.0525 z m 1.29643,-0.19952 0.63416,-1.04633 h 0.30163 v 1.43882 h -0.27446 v -1.04727 l -0.63136,1.04727 h -0.30443 v -1.43882 h 0.27446 z m 0.51426,-1.53343 h 0.23044 q 0,0.15831 -0.11241,0.2576 -0.11147,0.0984 -0.30163,0.0984 -0.18921,0 -0.30069,-0.0984 -0.11147,-0.0993 -0.11147,-0.2576 h 0.2295 q 0,0.0703 0.0412,0.12459 0.0412,0.0534 0.14145,0.0534 0.0984,0 0.14051,-0.0534 0.0431,-0.0534 0.0431,-0.12459 z m 1.16248,1.66363 -0.014,0.10211 q -0.0141,0.11241 -0.0478,0.23418 -0.0328,0.12272 -0.0684,0.22763 -0.0347,0.10492 -0.0571,0.16674 h -0.19859 q 0.0122,-0.0581 0.0337,-0.15737 0.0215,-0.0984 0.0421,-0.22013 0.0206,-0.12178 0.0309,-0.24824 l 0.009,-0.10492 z m 0.97795,-0.11802 h 0.28664 q 0.006,0.088 0.0796,0.13582 0.0749,0.0478 0.1939,0.0478 0.12084,0 0.20608,-0.0515 0.0852,-0.0525 0.0852,-0.16205 0,-0.0656 -0.0328,-0.11428 -0.0318,-0.0497 -0.0909,-0.0768 -0.0581,-0.0272 -0.1377,-0.0272 h -0.23419 v -0.22014 h 0.23418 q 0.11897,0 0.17798,-0.0543 0.059,-0.0543 0.059,-0.13583 0,-0.0881 -0.0637,-0.14144 -0.0628,-0.0543 -0.17516,-0.0543 -0.11429,0 -0.19016,0.0515 -0.0759,0.0506 -0.0796,0.13114 h -0.28289 q 0.003,-0.12084 0.0731,-0.2117 0.0712,-0.0918 0.19109,-0.14238 0.12084,-0.0515 0.27446,-0.0515 0.16018,0 0.27727,0.0515 0.11709,0.0515 0.18079,0.14238 0.0646,0.0909 0.0646,0.20889 0,0.11896 -0.0712,0.19484 -0.0703,0.0749 -0.1836,0.10772 v 0.015 q 0.0834,0.006 0.14801,0.0506 0.0646,0.045 0.10117,0.11897 0.0365,0.074 0.0365,0.16767 0,0.13208 -0.0731,0.22856 -0.0721,0.0965 -0.20046,0.14894 -0.1274,0.0515 -0.29133,0.0515 -0.15924,0 -0.2857,-0.0496 -0.12552,-0.0506 -0.19952,-0.14238 -0.0731,-0.0918 -0.0777,-0.21732 z m 1.83599,0.41216 q -0.13676,0 -0.24729,-0.0506 -0.11054,-0.0515 -0.17517,-0.14894 -0.0637,-0.0974 -0.0637,-0.23887 0,-0.12177 0.0468,-0.20046 0.0468,-0.0787 0.12646,-0.12459 0.0796,-0.0459 0.17798,-0.0693 0.0984,-0.0234 0.20045,-0.0356 0.129266,-0.015 0.209826,-0.0243 0.0806,-0.0102 0.11709,-0.0328 0.0365,-0.0225 0.0365,-0.0731 v -0.006 q 0,-0.12272 -0.0693,-0.19016 -0.0684,-0.0674 -0.204196,-0.0674 -0.14145,0 -0.22295,0.0628 -0.0806,0.0618 -0.11147,0.1377 l -0.26322,-0.06 q 0.0468,-0.13115 0.13677,-0.2117 0.0909,-0.0815 0.20889,-0.11803 0.11802,-0.0375 0.24823,-0.0375 0.0862,0 0.182656,0.0206 0.0974,0.0197 0.18173,0.0731 0.0852,0.0534 0.13957,0.15269 0.0543,0.0984 0.0543,0.25572 v 0.95547 h -0.27353 v -0.19672 h -0.0112 q -0.0272,0.0543 -0.0815,0.10679 -0.0543,0.0525 -0.13957,0.0871 -0.0852,0.0347 -0.204206,0.0347 z m 0.0609,-0.22482 q 0.116156,0 0.198586,-0.0459 0.0834,-0.0459 0.12646,-0.1199 0.044,-0.0749 0.044,-0.16018 v -0.18547 q -0.015,0.015 -0.0581,0.0281 -0.0421,0.0122 -0.0965,0.0215 -0.0543,0.008 -0.10585,0.0159 -0.0515,0.006 -0.0862,0.0112 -0.0815,0.0103 -0.14894,0.0347 -0.0665,0.0243 -0.10679,0.0703 -0.0393,0.045 -0.0393,0.1199 0,0.10398 0.0768,0.15737 0.0768,0.0525 0.19577,0.0525 z m 1.580256,0.60794 v -0.65759 h 0.1171 q 0.045,-0.0412 0.0759,-0.0984 0.0318,-0.0571 0.0534,-0.13582 0.0225,-0.0787 0.0375,-0.1836 0.015,-0.10585 0.0262,-0.24168 l 0.045,-0.53674 h 0.97794 v 1.1962 h 0.22107 v 0.65759 h -0.27352 v -0.41498 h -1.00324 v 0.41498 z m 0.41685,-0.65759 h 0.6426 v -0.9564 h -0.45338 l -0.03,0.29694 q -0.0215,0.22669 -0.0543,0.39343 -0.0328,0.1658 -0.10492,0.26603 z m 1.82849,0.27447 q -0.13676,0 -0.24729,-0.0506 -0.11054,-0.0515 -0.17517,-0.14894 -0.0637,-0.0974 -0.0637,-0.23887 0,-0.12177 0.0468,-0.20046 0.0468,-0.0787 0.12646,-0.12459 0.0796,-0.0459 0.17797,-0.0693 0.0984,-0.0234 0.20047,-0.0356 0.12926,-0.015 0.20982,-0.0243 0.0806,-0.0102 0.1171,-0.0328 0.0365,-0.0225 0.0365,-0.0731 v -0.006 q 0,-0.12272 -0.0693,-0.19016 -0.0684,-0.0674 -0.20421,-0.0674 -0.14145,0 -0.22294,0.0628 -0.0806,0.0618 -0.11147,0.1377 l -0.26323,-0.06 q 0.0468,-0.13115 0.13677,-0.2117 0.0909,-0.0815 0.20889,-0.11803 0.11803,-0.0375 0.24823,-0.0375 0.0862,0 0.18266,0.0206 0.0974,0.0197 0.18173,0.0731 0.0852,0.0534 0.13957,0.15269 0.0543,0.0984 0.0543,0.25572 v 0.95547 h -0.27353 v -0.19672 h -0.0112 q -0.0272,0.0543 -0.0815,0.10679 -0.0543,0.0525 -0.13957,0.0871 -0.0852,0.0347 -0.20421,0.0347 z m 0.0609,-0.22482 q 0.11616,0 0.19859,-0.0459 0.0834,-0.0459 0.12646,-0.1199 0.044,-0.0749 0.044,-0.16018 v -0.18547 q -0.015,0.015 -0.0581,0.0281 -0.0421,0.0122 -0.0965,0.0215 -0.0543,0.008 -0.10585,0.0159 -0.0515,0.006 -0.0862,0.0112 -0.0815,0.0103 -0.14894,0.0347 -0.0665,0.0243 -0.10678,0.0703 -0.0393,0.045 -0.0393,0.1199 0,0.10398 0.0768,0.15737 0.0768,0.0525 0.19577,0.0525 z m 1.89782,0.73252 q -0.0628,0 -0.11428,-0.0103 -0.0515,-0.009 -0.0768,-0.0206 l 0.0674,-0.22949 q 0.0768,0.0206 0.13676,0.0178 0.0599,-0.003 0.10585,-0.045 0.0468,-0.0422 0.0824,-0.1377 l 0.0347,-0.0956 -0.52644,-1.45755 h 0.29975 l 0.36439,1.11658 h 0.015 l 0.36439,-1.11658 h 0.30069 l -0.59295,1.63084 q -0.0412,0.11241 -0.10492,0.19016 -0.0637,0.0787 -0.15175,0.11803 -0.0881,0.0393 -0.20421,0.0393 z m 2.42894,-1.97837 v 1.43882 h -0.27352 v -1.43882 z m -0.11896,0.66789 v 0.24168 q -0.0646,0.0262 -0.13677,0.0468 -0.0721,0.0197 -0.15175,0.0309 -0.0796,0.0112 -0.1658,0.0112 -0.26697,0 -0.42434,-0.13021 -0.15737,-0.13114 -0.15737,-0.40092 v -0.47024 h 0.27259 v 0.47024 q 0,0.1021 0.0375,0.1658 0.0375,0.0637 0.10679,0.0937 0.0693,0.03 0.16486,0.03 0.12646,0 0.23325,-0.0234 0.10772,-0.0243 0.22107,-0.0656 z m 0.91143,0.80278 q -0.13676,0 -0.24729,-0.0506 -0.11054,-0.0515 -0.17517,-0.14894 -0.0637,-0.0974 -0.0637,-0.23887 0,-0.12177 0.0468,-0.20046 0.0468,-0.0787 0.12646,-0.12458 0.0796,-0.0459 0.17798,-0.0693 0.0984,-0.0234 0.20046,-0.0356 0.12927,-0.015 0.20983,-0.0243 0.0805,-0.0102 0.11709,-0.0328 0.0365,-0.0225 0.0365,-0.0731 v -0.006 q 0,-0.12272 -0.0693,-0.19016 -0.0684,-0.0674 -0.20421,-0.0674 -0.14145,0 -0.22294,0.0628 -0.0806,0.0618 -0.11147,0.1377 l -0.26322,-0.06 q 0.0468,-0.13115 0.13676,-0.2117 0.0909,-0.0815 0.20889,-0.11803 0.11803,-0.0375 0.24823,-0.0375 0.0862,0 0.18267,0.0206 0.0974,0.0197 0.18172,0.0731 0.0852,0.0534 0.13957,0.15269 0.0543,0.0984 0.0543,0.25572 v 0.95547 h -0.27352 v -0.19672 h -0.0112 q -0.0272,0.0543 -0.0815,0.10679 -0.0543,0.0525 -0.13957,0.0871 -0.0852,0.0347 -0.20421,0.0347 z m 0.0609,-0.22482 q 0.11616,0 0.19859,-0.0459 0.0834,-0.0459 0.12646,-0.1199 0.044,-0.0749 0.044,-0.16018 v -0.18547 q -0.015,0.015 -0.0581,0.0281 -0.0421,0.0122 -0.0965,0.0215 -0.0543,0.008 -0.10585,0.0159 -0.0515,0.006 -0.0862,0.0112 -0.0815,0.0103 -0.14894,0.0347 -0.0665,0.0243 -0.10678,0.0703 -0.0393,0.045 -0.0393,0.1199 0,0.10398 0.0768,0.15737 0.0768,0.0525 0.19577,0.0525 z m 1.62804,0.22201 q -0.20889,0 -0.3597,-0.0946 -0.14988,-0.0956 -0.23044,-0.26322 -0.0806,-0.16768 -0.0806,-0.38406 0,-0.2192 0.0824,-0.38687 0.0824,-0.16861 0.23231,-0.26322 0.14987,-0.0946 0.35315,-0.0946 0.16392,0 0.29225,0.0609 0.12834,0.06 0.20702,0.16861 0.0796,0.10866 0.0946,0.25385 h -0.27259 q -0.0225,-0.10117 -0.10303,-0.17423 -0.0796,-0.0731 -0.21358,-0.0731 -0.11709,0 -0.20514,0.0618 -0.0871,0.0609 -0.13583,0.17423 -0.0487,0.11241 -0.0487,0.26603 0,0.15737 0.0478,0.27166 0.0478,0.11427 0.13489,0.17704 0.088,0.0628 0.20702,0.0628 0.0796,0 0.14426,-0.0291 0.0656,-0.03 0.10959,-0.0852 0.045,-0.0553 0.0628,-0.13302 h 0.27259 q -0.015,0.13957 -0.0909,0.24917 -0.0759,0.1096 -0.20327,0.17236 -0.12646,0.0628 -0.29694,0.0628 z m 0.78404,-1.22618 v -0.24168 h 1.214 v 0.24168 h -0.4693 v 1.19714 h -0.27354 v -1.19714 z m 1.51001,1.19714 v -1.43882 h 0.5967 q 0.24355,0 0.38593,0.10398 0.14238,0.10304 0.14238,0.28008 0,0.12646 -0.0806,0.20046 -0.0806,0.074 -0.21357,0.0993 0.0965,0.0112 0.17704,0.0581 0.0806,0.0459 0.12927,0.12365 0.0496,0.0777 0.0496,0.18547 0,0.11428 -0.059,0.20234 -0.059,0.0871 -0.17142,0.13676 -0.11147,0.0487 -0.26884,0.0487 z m 0.26322,-0.23419 h 0.42434 q 0.10398,0 0.16299,-0.0497 0.059,-0.0496 0.059,-0.13488 0,-0.10023 -0.059,-0.15738 -0.059,-0.0581 -0.16299,-0.0581 h -0.42434 z m 0,-0.60512 h 0.33629 q 0.0787,0 0.13489,-0.0225 0.0571,-0.0225 0.0871,-0.0637 0.0309,-0.0421 0.0309,-0.0993 0,-0.0834 -0.0684,-0.13021 -0.0684,-0.0468 -0.18735,-0.0468 h -0.33348 z m 1.64865,0.87116 q -0.13677,0 -0.2473,-0.0506 -0.11053,-0.0515 -0.17517,-0.14894 -0.0637,-0.0974 -0.0637,-0.23887 0,-0.12177 0.0468,-0.20046 0.0468,-0.0787 0.12646,-0.12458 0.0796,-0.0459 0.17798,-0.0693 0.0984,-0.0234 0.20046,-0.0356 0.12927,-0.015 0.20983,-0.0243 0.0806,-0.0102 0.11709,-0.0328 0.0365,-0.0225 0.0365,-0.0731 v -0.006 q 0,-0.12272 -0.0693,-0.19016 -0.0684,-0.0674 -0.20421,-0.0674 -0.14145,0 -0.22294,0.0628 -0.0806,0.0618 -0.11147,0.1377 l -0.26322,-0.06 q 0.0468,-0.13115 0.13676,-0.2117 0.0909,-0.0815 0.20889,-0.11803 0.11803,-0.0375 0.24823,-0.0375 0.0862,0 0.18267,0.0206 0.0974,0.0197 0.18172,0.0731 0.0852,0.0534 0.13957,0.15269 0.0543,0.0984 0.0543,0.25572 v 0.95547 h -0.27352 v -0.19672 h -0.0112 q -0.0272,0.0543 -0.0815,0.10679 -0.0543,0.0525 -0.13957,0.0871 -0.0852,0.0347 -0.20421,0.0347 z m 0.0609,-0.22482 q 0.11615,0 0.19858,-0.0459 0.0834,-0.0459 0.12646,-0.1199 0.044,-0.0749 0.044,-0.16018 v -0.18547 q -0.015,0.015 -0.0581,0.0281 -0.0421,0.0122 -0.0965,0.0215 -0.0543,0.008 -0.10585,0.0159 -0.0515,0.006 -0.0862,0.0112 -0.0815,0.0103 -0.14895,0.0347 -0.0665,0.0243 -0.10678,0.0703 -0.0393,0.045 -0.0393,0.1199 0,0.10398 0.0768,0.15737 0.0768,0.0525 0.19577,0.0525 z m 1.02197,-1.24585 h 0.27446 v 1.19621 h 0.49741 v -1.19621 h 0.27446 v 1.19621 h 0.4974 v -1.19621 h 0.27446 v 1.43882 h -1.81819 z"
       id="path597"
       style="font-weight:500;font-size:2.46944px;line-height:1;font-family:Inter;-inkscape-font-specification:'Inter, Medium';text-align:justify;stroke-width:0.3;stroke-linecap:round;stroke-miterlimit:33.9"
       aria-label="Сканирай, за да участваш" /><path
       d="m 84.481414,38.535982 v -0.6762 l 0.60279,-0.11592 v -3.96448 h -1.02397 l -0.0618,0.67234 h -0.85394 v -1.54175 h 5.01936 v 1.54175 h -0.85782 l -0.0618,-0.67234 h -1.03169 v 3.96448 l 0.60665,0.11592 v 0.6762 z m 5.7883,0.0811 q -0.61825,0 -1.06261,-0.27048 -0.44436,-0.27048 -0.68007,-0.74962 -0.2357,-0.483 -0.2357,-1.10897 v -0.0811 q 0,-0.62211 0.2357,-1.10125 0.23571,-0.483 0.67621,-0.75348 0.44436,-0.27434 1.05874,-0.27434 0.6221,0 1.0626,0.27434 0.4405,0.27048 0.6762,0.74962 0.23571,0.47914 0.23571,1.10511 v 0.0811 q 0,0.62597 -0.23571,1.10897 -0.2357,0.47914 -0.6762,0.74962 -0.4405,0.27048 -1.05487,0.27048 z m 0,-0.86554 q 0.29366,0 0.47913,-0.15842 0.18548,-0.15842 0.27435,-0.4405 0.0889,-0.28593 0.0889,-0.66461 v -0.0811 q 0,-0.37095 -0.0889,-0.65302 -0.0889,-0.28594 -0.27821,-0.44436 -0.18547,-0.16229 -0.483,-0.16229 -0.2898,0 -0.47914,0.16229 -0.18934,0.15842 -0.27821,0.44436 -0.085,0.28207 -0.085,0.65302 v 0.0811 q 0,0.37868 0.085,0.66461 0.0889,0.28594 0.27821,0.44436 0.18934,0.15456 0.48687,0.15456 z m 2.55025,0.7844 v -0.6762 l 0.60278,-0.11592 v -2.59276 l -0.60278,-0.11592 v -0.68006 h 0.60278 1.39491 l 1.06647,2.8671 h 0.0232 l 1.0742,-2.8671 h 1.41423 0.59892 v 0.68006 l -0.59892,0.11592 v 2.59276 l 0.59892,0.11592 v 0.6762 h -2.15225 v -0.6762 l 0.42504,-0.11592 v -1.69631 l -0.0232,-0.004 -0.96987,2.49229 h -0.75735 l -0.94668,-2.44592 -0.0232,0.004 v 1.64994 l 0.4289,0.11592 v 0.6762 z m 8.782896,0.0811 q -0.61824,0 -1.0626,-0.25888 -0.4405,-0.25889 -0.676206,-0.71485 -0.2357,-0.45981 -0.2357,-1.05101 v -0.5371 q 0,-0.94282 0.24343,-1.57652 0.243436,-0.63369 0.680066,-0.98918 0.43663,-0.35936 1.00851,-0.47141 0.37481,-0.0618 0.55255,-0.16229 0.18161,-0.10433 0.18161,-0.33617 h 0.87327 l 0.0116,0.0232 q 0.008,0.37868 -0.0966,0.61438 -0.10047,0.23571 -0.2898,0.37481 -0.18934,0.13911 -0.45209,0.22025 -0.25889,0.0773 -0.56029,0.13524 -0.38253,0.0734 -0.62983,0.22025 -0.24343,0.14297 -0.37867,0.36322 -0.13138,0.22025 -0.18161,0.5255 l 0.0155,0.0193 q 0.21252,-0.18933 0.50232,-0.30912 0.2898,-0.11978 0.64143,-0.11978 0.56028,0 0.96986,0.24729 0.40959,0.2473 0.62984,0.6878 0.22411,0.43663 0.22411,1.01237 v 0.0811 q 0,0.5912 -0.2357,1.04329 -0.23571,0.45209 -0.67621,0.70711 -0.44049,0.25116 -1.05874,0.25116 z m 0,-0.86554 q 0.2898,0 0.47528,-0.1391 0.18933,-0.14297 0.2782,-0.39799 0.0889,-0.25889 0.0889,-0.59893 v -0.0811 q 0,-0.31685 -0.0927,-0.56028 -0.0889,-0.24343 -0.27821,-0.37868 -0.18547,-0.1391 -0.47913,-0.1391 -0.2898,0 -0.47528,0.1391 -0.18547,0.13525 -0.27434,0.37868 -0.0889,0.24343 -0.0889,0.56028 v 0.058 q 0,0.3439 0.085,0.60665 0.0889,0.26275 0.27434,0.40959 0.18934,0.14296 0.48687,0.14296 z m 4.44748,0.86554 q -0.61824,0 -1.0626,-0.27048 -0.44436,-0.27048 -0.68007,-0.74962 -0.2357,-0.483 -0.2357,-1.10897 v -0.0811 q 0,-0.62211 0.2357,-1.10125 0.23571,-0.483 0.6762,-0.75348 0.44437,-0.27434 1.05874,-0.27434 0.62211,0 1.06261,0.27434 0.4405,0.27048 0.6762,0.74962 0.23571,0.47914 0.23571,1.10511 v 0.0811 q 0,0.62597 -0.23571,1.10897 -0.2357,0.47914 -0.6762,0.74962 -0.4405,0.27048 -1.05488,0.27048 z m 0,-0.86554 q 0.29367,0 0.47914,-0.15842 0.18547,-0.15842 0.27434,-0.4405 0.0889,-0.28593 0.0889,-0.66461 v -0.0811 q 0,-0.37095 -0.0889,-0.65302 -0.0889,-0.28594 -0.2782,-0.44436 -0.18548,-0.16229 -0.48301,-0.16229 -0.2898,0 -0.47913,0.16229 -0.18934,0.15842 -0.27821,0.44436 -0.085,0.28207 -0.085,0.65302 v 0.0811 q 0,0.37868 0.085,0.66461 0.0889,0.28594 0.27821,0.44436 0.18933,0.15456 0.48686,0.15456 z m 2.43433,0.7844 -0.0155,-0.88872 0.12365,-0.004 q 0.25889,0 0.39027,-0.13524 0.13137,-0.13524 0.17774,-0.46369 0.0502,-0.32844 0.0502,-0.90804 v -0.98532 l -0.60279,-0.11592 v -0.68006 h 3.86015 0.60279 v 0.68006 l -0.60279,0.11592 v 2.59276 l 0.60279,0.11592 v 0.6762 h -2.33 v -0.6762 l 0.60278,-0.11592 v -2.51548 h -1.00464 v 0.90805 q 0,1.23648 -0.38254,1.81995 -0.37867,0.5796 -1.29444,0.5796 z m 6.49928,0.0811 q -0.62211,0 -0.98919,-0.3323 -0.36708,-0.33617 -0.36708,-0.91191 0,-0.59119 0.47913,-0.95827 0.47914,-0.37095 1.40264,-0.37095 h 0.55256 v -0.30912 q 0,-0.30139 -0.17775,-0.48687 -0.17388,-0.18933 -0.52551,-0.18933 -0.18161,0 -0.32457,0.0464 -0.14297,0.0425 -0.26276,0.12365 l -0.0889,0.55256 h -0.81144 l -0.0155,-1.08579 q 0.32844,-0.18547 0.71098,-0.30139 0.38254,-0.11592 0.85395,-0.11592 0.81917,0 1.29444,0.38253 0.47528,0.37868 0.47528,1.08579 v 1.72335 q 0,0.085 0,0.17002 0.004,0.0811 0.0155,0.15842 l 0.43663,0.0618 v 0.6762 h -1.39877 q -0.0425,-0.10819 -0.085,-0.23184 -0.0425,-0.12365 -0.0618,-0.2473 -0.20093,0.25503 -0.47528,0.40959 -0.27048,0.1507 -0.63756,0.15069 z m 0.30139,-0.83462 q 0.2357,0 0.44822,-0.10433 0.21252,-0.10819 0.32845,-0.28207 v -0.66075 h -0.55642 q -0.37095,0 -0.56415,0.17002 -0.18934,0.17001 -0.18934,0.40958 0,0.22411 0.13911,0.34776 0.14297,0.11979 0.39413,0.11979 z"
       id="path598"
       style="font-weight:bold;font-size:7.40833px;line-height:1;font-family:'Roboto Slab';-inkscape-font-specification:'Roboto Slab, Bold';text-align:justify;stroke-width:0.3;stroke-linecap:round;stroke-miterlimit:33.9"
       aria-label="Томбола&#10;" /><rect
       style="fill:#ffffff;stroke-width:0.3;stroke-linecap:round;stroke-miterlimit:33.9"
       id="rect598"
       width="6.8536611"
       height="6.9949727"
       x="97.808403"
       y="56.058754"
       rx="0.53409493"
       ry="0.53409493" /><path
       id="path599"
       style="display:none;fill:#000000;stroke-width:0.264583"
       d="m 101.21186,56.389972 -0.11488,0.0683 c -0.35449,0.21066 -0.74561,0.34179 -1.159376,0.38861 -0.29006,0.033 -0.57609,0.004 -0.83684,-0.0833 -0.17278,-0.0581 -0.18939,-0.0654 -0.31133,-0.13467 -0.0639,-0.0365 -0.12484,-0.0662 -0.13516,-0.0662 -0.037,0 -0.0946,0.14421 -0.19379,0.48449 -0.0569,0.19505 -0.11917,0.57144 -0.13968,0.84313 -0.0199,0.26401 0.001,0.89108 0.033,0.97527 0.004,0.0104 0.009,0.0472 0.0125,0.0817 0.011,0.12949 0.10847,0.52323 0.18146,0.73238 0.0889,0.25508 0.21033,0.50115 0.34692,0.73951 1e-5,10e-6 3e-5,10e-6 3e-5,2e-5 6e-5,1.6e-4 6e-5,2.6e-4 1.2e-4,4.2e-4 0.002,0.005 0.004,0.009 0.007,0.012 1.7e-4,1.9e-4 3.3e-4,3.5e-4 4.9e-4,5.4e-4 0.21603,0.37415 0.47958,0.72389 0.79022,1.02071 0.0761,0.0727 0.0994,0.0942 0.22823,0.19985 4e-5,3e-5 1.6e-4,1.1e-4 2e-4,1.4e-4 4e-5,3e-5 6e-5,8e-5 1e-4,1.1e-4 0.116846,0.10416 0.331876,0.26926 0.551676,0.41967 0.0426,0.0291 0.11369,0.0724 0.1778,0.11237 -0.0202,-0.0129 -0.036,-0.0198 -0.0564,-0.0331 0.0507,0.032 0.10684,0.0666 0.16276,0.10033 0.11649,0.0702 0.23184,0.13661 0.29346,0.16747 2.4e-4,1.2e-4 4.5e-4,2.3e-4 6.8e-4,3.5e-4 2e-5,1e-5 5e-5,3e-5 7e-5,5e-5 1.5e-4,7e-5 3e-4,1.5e-4 4.5e-4,2.2e-4 0.10973,0.0547 0.131,0.0716 0.17165,0.13553 0.0165,0.0259 0.0327,0.0472 0.0359,0.0472 0.003,0 0.0167,-0.0213 0.0299,-0.0472 0.0318,-0.0623 0.0529,-0.08 0.1719,-0.14472 0.10482,-0.0569 0.13843,-0.0761 0.25571,-0.14648 0.0391,-0.0234 0.0824,-0.0488 0.0963,-0.0566 0.0438,-0.0243 0.41415,-0.281 0.44045,-0.30541 0.014,-0.0127 0.0576,-0.0477 0.0971,-0.0778 0.23029,-0.1753 0.58805,-0.52753 0.76888,-0.75706 0.21709,-0.27574 0.37207,-0.50714 0.50056,-0.75077 -2.3e-4,4.2e-4 -4.3e-4,8.5e-4 -6.3e-4,0.001 6.8e-4,-0.001 0.002,-0.003 0.002,-0.004 0.01,-0.0184 0.0192,-0.0369 0.0287,-0.0555 4.3e-4,-8.1e-4 8.1e-4,-0.002 10e-4,-0.003 -1.8e-4,3.9e-4 -4.3e-4,8e-4 -6.2e-4,10e-4 0.0284,-0.0561 0.0555,-0.11295 0.0818,-0.17143 0.007,-0.0162 0.0143,-0.0318 0.021,-0.0469 0.0381,-0.0855 0.0667,-0.15262 0.0878,-0.20668 0.0113,-0.0289 0.0162,-0.0474 0.0235,-0.0697 1e-5,-4e-5 3e-5,-9e-5 4e-5,-1.3e-4 0.018,-0.055 0.0287,-0.0988 0.0281,-0.13041 5.9e-4,0.0316 -0.0102,0.0754 -0.0281,0.13041 0.002,-0.006 0.0102,-0.0239 0.0116,-0.0289 0.005,-0.0174 0.0172,-0.0508 0.0279,-0.0745 0.0186,-0.0412 0.0502,-0.14966 0.0825,-0.27729 1e-4,-2.8e-4 1e-4,-4.9e-4 1.9e-4,-7.6e-4 0.0233,-0.0792 0.0444,-0.16593 0.0516,-0.21826 5e-5,-2.6e-4 9e-5,-5.3e-4 1.9e-4,-8e-4 0.0148,-0.067 0.0282,-0.13234 0.0384,-0.18975 0.0347,-0.19298 0.0502,-0.31595 0.0615,-0.4473 0,-2e-5 0,-6e-5 0,-1e-4 8.5e-4,-0.007 0.002,-0.0115 0.003,-0.0184 v -2e-5 c 0.001,-0.0143 0.001,-0.0276 0.002,-0.0418 0.004,-0.0568 0.009,-0.10355 0.0126,-0.17869 0.004,-0.0838 -0.008,-0.2136 -0.0161,-0.3507 0,-10e-6 0,-4e-5 0,-5e-5 1.4e-4,-0.001 4e-5,-0.006 2.3e-4,-0.007 0.003,-0.0158 0.004,-0.0239 0.004,-0.0249 l -2e-5,-3e-5 v -2e-5 l -3e-5,-3e-5 v -2e-5 h -2e-5 -3e-5 v -3e-5 h -2e-5 l -3e-5,3e-5 h -2e-5 -3e-5 c -5.3e-4,4.2e-4 -0.002,0.006 -0.005,0.013 -0.005,-0.0904 -0.004,-0.20116 -0.0108,-0.23615 -0.003,-0.0147 -0.0113,-0.0725 -0.0189,-0.12847 -0.0185,-0.13616 -0.0846,-0.46674 -0.10598,-0.52941 -0.009,-0.0277 -0.041,-0.12396 -0.0701,-0.21393 -0.0563,-0.17341 -0.0931,-0.25797 -0.11277,-0.25797 -0.006,0 -0.0458,0.022 -0.0873,0.0488 -0.16724,0.10809 -0.41226,0.19642 -0.65526,0.23644 -0.44925,0.0737 -1.07316,-0.0508 -1.62169,-0.32404 z m 2.40717,3.92837 c -0.0437,0.0829 -0.0905,0.1645 -0.14179,0.24679 0.0395,-0.0628 0.0758,-0.12396 0.10873,-0.18324 0.01,-0.0177 0.0219,-0.0421 0.0331,-0.0636 z m -2.41668,-3.62766 c 0.008,-3.5e-4 0.0148,0.002 0.0217,0.007 0.0122,0.008 0.0648,0.0373 0.11665,0.0644 0.0519,0.0273 0.11137,0.0586 0.13213,0.0697 0.14245,0.0761 0.4656,0.18184 0.70206,0.22979 0.22274,0.0451 0.55055,0.0558 0.74032,0.024 0.21229,-0.0355 0.41227,-0.11363 0.58631,-0.22915 0.005,-0.004 0.0105,-0.007 0.0151,-0.0103 0.0234,-0.0159 0.0376,-0.0255 0.0496,-0.0233 0.021,0.004 0.0352,0.0437 0.08,0.149 0.0293,0.0692 0.0564,0.12861 0.0599,0.13213 0.004,0.004 0.008,0.0148 0.009,0.0252 0.003,0.025 0.0762,0.31019 0.0926,0.35977 0.004,0.0118 0.008,0.0287 0.0118,0.0498 -0.007,-0.0459 -0.0122,-0.095 -0.0122,-0.12697 0,0.0525 0.0142,0.14904 0.0271,0.20405 -0.003,-0.0109 -0.005,-0.0206 -0.008,-0.0343 0.017,0.11137 0.0327,0.28944 0.0388,0.45367 0.009,0.24123 -0.01,0.57308 -0.041,0.73616 -0.0106,0.0554 -0.0239,0.14598 -0.0297,0.20135 -0.006,0.0554 -0.0195,0.11766 -0.0303,0.13842 -0.011,0.0208 -0.0199,0.0559 -0.0199,0.0779 -1.4e-4,0.0222 -0.006,0.0437 -0.0127,0.048 -0.007,0.004 -0.0126,0.0181 -0.0126,0.0307 0,0.0274 -0.068,0.24842 -0.10092,0.32795 -0.0128,0.0312 -0.0412,0.10482 -0.0628,0.1636 -0.10029,0.27219 -0.30478,0.66229 -0.49417,0.94304 -0.10281,0.15227 -0.31486,0.42459 -0.41717,0.53558 -0.0383,0.0415 -0.0696,0.0824 -0.0699,0.0909 v 1.3e-4 c 0.006,-0.006 0.0111,-0.0112 0.0167,-0.0167 -0.0266,0.0265 -0.0497,0.0515 -0.0703,0.0744 0.009,-0.01 0.0153,-0.0177 0.0253,-0.0284 -0.003,0.002 -0.006,0.003 -0.008,0.005 -0.02,0.0104 -0.0571,0.0431 -0.0824,0.0726 -0.0253,0.0297 -0.0811,0.0842 -0.12397,0.12129 -0.0429,0.0371 -0.12055,0.10823 -0.17239,0.15807 -0.0308,0.0296 -0.0626,0.0586 -0.0967,0.0879 -0.13787,0.11492 -0.21512,0.1715 -0.36083,0.27193 -0.003,0.002 -0.005,0.004 -0.008,0.006 -0.0588,0.0406 -0.14095,0.0973 -0.18247,0.12584 -0.0415,0.0287 -0.0984,0.0649 -0.12621,0.0804 -0.0282,0.0157 -0.0666,0.0532 -0.0862,0.0842 -0.0194,0.0307 -0.0418,0.0557 -0.0498,0.0556 -0.008,-1.2e-4 -0.0316,-0.0264 -0.0523,-0.0584 -0.0218,-0.0336 -0.059,-0.0696 -0.0881,-0.0849 -0.053,-0.0282 -0.24728,-0.1568 -0.25798,-0.17089 -0.003,-0.005 -0.0294,-0.022 -0.0576,-0.0388 -0.0283,-0.0169 -0.0736,-0.0487 -0.10067,-0.0708 -0.0272,-0.0221 -0.0833,-0.0659 -0.12484,-0.0972 -0.0312,-0.0235 -0.0631,-0.0503 -0.0961,-0.0764 -0.10038,-0.0795 -0.19789,-0.16099 -0.29319,-0.24969 6.3e-4,9.8e-4 0.001,0.002 0.002,0.003 -0.008,-0.0132 -0.0192,-0.0239 -0.0247,-0.0239 h 3.8e-4 c -0.167056,-0.1573 -0.331136,-0.33334 -0.506936,-0.54237 -0.014,-0.0166 -0.0695,-0.0897 -0.12321,-0.16233 -0.0539,-0.0726 -0.10484,-0.14057 -0.11314,-0.15101 -0.0692,-0.0854 -0.26375,-0.40924 -0.35147,-0.58516 -0.32529,-0.65148 -0.47993,-1.27376 -0.47993,-1.93166 -1.3e-4,-0.47467 0.0618,-0.84778 0.20183,-1.21687 0.0242,-0.0635 0.052,-0.12221 0.0617,-0.13026 0.0138,-0.0116 0.032,-0.005 0.086,0.0307 0.0376,0.025 0.0717,0.0454 0.0758,0.0454 0.004,0 0.0505,0.02 0.10346,0.0444 0.52211,0.24124 1.185286,0.19128 1.827706,-0.13766 0.0735,-0.0376 0.16321,-0.0843 0.19945,-0.10395 0.0337,-0.0183 0.0525,-0.0266 0.0664,-0.0272 z m 2.63563,0.94167 c 0.002,0.005 0.003,0.01 0.004,0.0136 -0.001,-0.004 -0.003,-0.008 -0.004,-0.0136 z m 0.006,0.0189 c 2.3e-4,5.8e-4 4.9e-4,10e-4 7.6e-4,0.002 -2.4e-4,-4.9e-4 -5e-4,-0.001 -7.6e-4,-0.002 z m 0.001,0.002 c 3.8e-4,6.7e-4 7.1e-4,10e-4 10e-4,0.002 -3.4e-4,-4.9e-4 -7.2e-4,-10e-4 -10e-4,-0.002 z m 0.002,0.002 c 1.4e-4,2.2e-4 2.9e-4,4.4e-4 4.9e-4,6.3e-4 -1.4e-4,-1.7e-4 -2.9e-4,-4.1e-4 -4.9e-4,-6.3e-4 z m -3.68232,0.005 c -0.007,0.0218 -0.0426,0.34493 -0.052,0.47505 -0.0102,0.14409 -0.0145,0.18926 -0.029,0.3146 -0.007,0.0589 -0.0153,0.1495 -0.0187,0.20135 -0.004,0.0519 -0.015,0.16737 -0.0254,0.25647 -0.0123,0.10521 -0.0149,0.16987 -0.007,0.18421 0.007,0.0122 0.0576,0.0497 0.11363,0.0833 0.056,0.0336 0.12371,0.0752 0.15052,0.0926 0.0846,0.0546 0.24451,0.14925 0.26628,0.15743 0.0155,0.006 0.0384,-0.0157 0.0891,-0.0842 0.0912,-0.12307 0.15741,-0.1802 0.27092,-0.23418 0.0861,-0.0408 0.10698,-0.0454 0.22816,-0.0503 0.41125,-0.0164 0.69301,0.2299 0.72976,0.63788 0.002,0.0262 0.004,0.047 0.004,0.0648 -10e-4,0.008 -0.002,0.0169 -0.002,0.0246 7e-5,0.01 -0.001,0.0186 -0.002,0.0281 -0.003,0.0218 -0.009,0.0434 -0.0191,0.0733 -0.0496,0.14698 -0.0965,0.22727 -0.18464,0.31548 -0.26879,0.26918 -0.68242,0.28464 -0.96216,0.0361 -0.13641,-0.12118 -0.2055,-0.26866 -0.2055,-0.43879 0,-0.15856 -0.0389,-0.20149 -0.18852,-0.20275 0.001,2.1e-4 0.002,5.8e-4 0.003,8.5e-4 -0.0106,-0.002 -0.0198,-0.003 -0.0274,-2.2e-4 5e-4,-1.6e-4 0.001,-3.5e-4 0.002,-4.9e-4 -0.25684,0.006 -0.495176,0.15995 -0.540986,0.35198 -0.0238,0.0997 -0.0121,0.24853 0.0259,0.33159 0.0548,0.11942 0.11048,0.18372 0.279356,0.32202 0.10359,0.0848 0.18475,0.13549 0.31047,0.19643 4e-5,10e-6 6e-5,3e-5 1e-4,5e-5 0.008,0.005 0.017,0.009 0.0271,0.0145 0.0686,0.0346 0.17832,0.0781 0.27304,0.11203 -0.0387,-0.0136 -0.0767,-0.0262 -0.1182,-0.0434 0.0487,0.0196 0.0992,0.0386 0.14489,0.0543 0.0125,0.004 0.0246,0.008 0.0362,0.0121 0.0296,0.01 0.0553,0.017 0.0759,0.0219 -0.001,-3e-4 -0.002,-3.4e-4 -0.003,-6.3e-4 0.002,4e-4 0.002,4.5e-4 0.004,8.1e-4 0.005,0.001 0.01,0.002 0.0144,0.003 0.005,9.4e-4 0.0105,0.002 0.0143,0.003 4.9e-4,5e-5 9e-4,2e-5 0.001,7e-5 1e-4,1e-5 1.4e-4,2e-5 2.3e-4,3e-5 1e-5,0 1e-5,0 2e-5,0 0.003,2.6e-4 0.006,4.4e-4 0.008,3.7e-4 10e-4,-3e-5 0.002,-1.3e-4 0.003,-2.9e-4 5e-4,-10e-5 10e-4,-1.8e-4 10e-4,-3e-4 -4.3e-4,1.2e-4 -9.2e-4,2.1e-4 -10e-4,3e-4 -0.001,1.7e-4 -0.002,2.4e-4 -0.003,2.9e-4 -0.002,1e-4 -0.005,-1.2e-4 -0.008,-3.7e-4 0.0244,0.006 0.0515,0.009 0.0764,0.0142 1e-5,0 2e-5,0 3e-5,0 0.0209,0.01 0.048,0.0151 0.0629,0.0123 5.4e-4,-1e-4 0.001,-1.3e-4 0.002,-2.3e-4 10e-6,0 10e-6,1e-5 2e-5,0 0.0369,0.006 0.0704,0.0159 0.11016,0.0205 0.0294,0.003 0.0791,0.005 0.13482,0.006 3.7e-4,1e-5 7.6e-4,3e-5 0.001,3e-5 -2.5e-4,-1e-5 -4.3e-4,-4e-5 -6.7e-4,-5e-5 0.0911,0.003 0.19809,-6.3e-4 0.27376,-0.0103 0.25369,-0.0323 0.58465,-0.14712 0.76133,-0.2639 0.0175,-0.0115 0.0403,-0.025 0.0553,-0.0329 4.5e-4,-2.1e-4 9e-4,-3.7e-4 0.001,-5.4e-4 0.002,-10e-4 0.005,-0.002 0.007,-0.004 0.006,-0.003 0.014,-0.008 0.0231,-0.0147 -5.3e-4,4e-4 -10e-4,0.001 -0.002,0.002 0.006,-0.004 0.0122,-0.009 0.0191,-0.0142 0.0204,-0.0158 0.0449,-0.0363 0.0696,-0.0581 10e-4,-10e-4 0.002,-0.002 0.004,-0.003 -5.8e-4,5.4e-4 -10e-4,9e-4 -0.002,10e-4 0.0413,-0.0366 0.0831,-0.0765 0.10724,-0.10332 0.0568,-0.0586 0.10766,-0.11711 0.13142,-0.15519 0.0318,-0.051 0.0569,-0.10149 0.0789,-0.15258 0.003,-0.008 0.007,-0.0142 0.0101,-0.0222 0.003,-0.007 0.005,-0.0148 0.008,-0.022 0.007,-0.0183 0.0142,-0.0365 0.0203,-0.0558 2e-4,-6.7e-4 4.1e-4,-0.001 6.2e-4,-0.002 -1e-4,3e-4 -2.2e-4,5.8e-4 -3.2e-4,8.5e-4 0.0109,-0.0342 0.0203,-0.0694 0.0272,-0.10392 0.005,-0.0226 0.008,-0.0509 0.0118,-0.0826 0.002,-0.0178 0.003,-0.0366 0.005,-0.0562 9e-4,-0.0126 1.8e-4,-0.0258 9e-4,-0.0389 0.003,-0.0415 0.007,-0.0799 0.008,-0.12657 2.5e-4,-0.033 -0.001,-0.0636 -0.002,-0.0945 -1.6e-4,-0.006 -2.9e-4,-0.0116 -4.9e-4,-0.0178 -4.5e-4,-0.009 -1.4e-4,-0.0189 -7.2e-4,-0.0277 1.8e-4,0.004 -3.5e-4,0.009 -1.9e-4,0.0129 -0.002,-0.0465 -0.005,-0.0872 -0.0105,-0.10717 10e-4,0.004 0.002,0.008 0.003,0.0133 -0.0328,-0.26476 -0.13875,-0.45102 -0.3455,-0.62468 -0.21884,-0.18385 -0.52551,-0.29772 -0.85786,-0.32062 0.001,7.2e-4 0.002,0.002 0.002,0.002 3.5e-4,-0.004 -0.0104,-0.006 -0.0317,-0.006 -0.008,0 -0.015,2e-4 -0.02,6.3e-4 -0.0185,-7.6e-4 -0.037,-10e-4 -0.0555,-10e-4 -0.21431,-0.002 -0.25244,-3.9e-4 -0.36671,0.0191 -0.22714,0.0386 -0.3838,0.10985 -0.54991,0.24979 -0.0301,0.0253 -0.0627,0.0461 -0.0724,0.0461 -0.0408,0 -0.007,-0.4607 0.0399,-0.53947 0.0125,-0.0211 0.0376,-0.0445 0.056,-0.0521 0.023,-0.01 0.31801,-0.0146 0.94961,-0.0164 l 0.9161,-0.002 0.0283,-0.0692 c 0.0354,-0.0866 0.11102,-0.27861 0.15846,-0.40269 0.003,-0.007 0.004,-0.0133 0.007,-0.0206 0,-10e-6 1e-5,-3e-5 2e-5,-5e-5 8.1e-4,-0.002 10e-4,-0.004 0.002,-0.006 1e-5,-2e-5 3e-5,-4e-5 3e-5,-6e-5 0.014,-0.0404 0.024,-0.0766 0.0214,-0.0837 -0.009,-0.023 -2.54702,-0.023 -2.55469,0 z m 1.42045,0.87877 c -0.002,1.9e-4 -0.004,4.4e-4 -0.005,7.2e-4 0.002,-2.8e-4 0.003,-5.4e-4 0.005,-7.2e-4 z m -0.008,10e-4 c -0.001,3.4e-4 -0.002,7.2e-4 -0.003,10e-4 7.2e-4,-4.4e-4 0.002,-8.5e-4 0.003,-10e-4 z m -0.004,0.002 c -5e-5,8e-5 -1e-4,1.5e-4 -1.5e-4,2.2e-4 -3e-5,8e-5 -9e-5,1.6e-4 -1.2e-4,2.4e-4 4e-5,-8e-5 8e-5,-1.6e-4 1.2e-4,-2.4e-4 4e-5,-8e-5 1e-4,-1.5e-4 1.5e-4,-2.2e-4 z m -4e-4,9.4e-4 c -1e-5,9e-5 -2e-5,1.9e-4 -2e-5,2.7e-4 0,-8e-5 1e-5,-1.7e-4 2e-5,-2.7e-4 z m -2e-5,3e-4 c 1e-5,3.3e-4 1e-4,6.7e-4 2.7e-4,0.001 -1.6e-4,-3.8e-4 -2.6e-4,-7.2e-4 -2.7e-4,-0.001 z m 4.2e-4,0.001 c 4.4e-4,8e-4 0.001,0.002 0.002,0.003 0.001,9.4e-4 0.003,0.002 0.004,0.003 -0.002,-10e-4 -0.003,-0.002 -0.004,-0.003 -10e-4,-9.4e-4 -0.002,-0.002 -0.002,-0.003 z m 1.25551,0.91382 c 1.7e-4,1.3e-4 3.5e-4,2.8e-4 5.4e-4,4.4e-4 3.2e-4,3.1e-4 6.7e-4,6.7e-4 0.001,10e-4 -3.3e-4,-4.2e-4 -6.8e-4,-7.6e-4 -0.001,-10e-4 -1.7e-4,-1.6e-4 -3.6e-4,-3.1e-4 -5.4e-4,-4.4e-4 z m 0.002,0.002 c 2.4e-4,3.1e-4 4.9e-4,6.3e-4 7.1e-4,9.8e-4 -2.2e-4,-3.5e-4 -4.9e-4,-7.1e-4 -7.1e-4,-9.8e-4 z m 0.002,0.003 c 7.1e-4,10e-4 10e-4,0.003 0.002,0.005 -6.7e-4,-0.002 -0.001,-0.004 -0.002,-0.005 z m -2.53538,0.13252 c -7.2e-4,2.6e-4 -0.001,5.4e-4 -0.002,8.5e-4 7.2e-4,-3e-4 0.002,-5.8e-4 0.002,-8.5e-4 z m 0.0328,10e-4 c 0.002,4.5e-4 0.003,9.9e-4 0.005,0.001 -0.002,-5.3e-4 -0.003,-0.001 -0.005,-0.001 z m -0.0361,1e-4 c -7.1e-4,3.5e-4 -0.001,7.2e-4 -0.002,10e-4 6.7e-4,-4e-4 0.001,-7.6e-4 0.002,-10e-4 z m -0.003,10e-4 c -6.7e-4,4.3e-4 -0.001,8.6e-4 -0.002,0.001 6.7e-4,-4.9e-4 0.001,-9.4e-4 0.002,-0.001 z m 0.0487,0.002 c 10e-4,4.4e-4 0.002,9.4e-4 0.003,10e-4 -0.001,-4.9e-4 -0.002,-9.8e-4 -0.003,-10e-4 z m -0.0516,8e-5 c -5.8e-4,4.9e-4 -10e-4,9.9e-4 -0.002,0.001 5.4e-4,-5.4e-4 0.001,-0.001 0.002,-0.001 z m -0.002,0.002 c -5.8e-4,5.8e-4 -0.001,10e-4 -0.002,0.002 5.4e-4,-6.3e-4 10e-4,-0.001 0.002,-0.002 z m -0.002,0.002 c -5.8e-4,7.2e-4 -0.001,10e-4 -0.002,0.002 -6.3e-4,9.4e-4 -10e-4,0.002 -0.002,0.003 5.4e-4,-10e-4 0.001,-0.002 0.002,-0.003 5.4e-4,-8.1e-4 0.001,-0.002 0.002,-0.002 z m 0.073,0.004 c 0.003,0.002 0.006,0.003 0.01,0.005 -0.003,-0.002 -0.006,-0.004 -0.01,-0.005 z m 0.0238,0.0148 c 0.003,0.002 0.006,0.004 0.009,0.007 -0.003,-0.002 -0.006,-0.004 -0.009,-0.007 z m 1.49923,0.21621 c -0.001,0.0144 -0.002,0.0294 -0.004,0.0431 0.002,-0.0137 0.003,-0.0286 0.004,-0.0431 z m -0.005,0.0518 c -0.004,0.0232 -0.009,0.0455 -0.0156,0.0666 0.007,-0.0211 0.0118,-0.0434 0.0156,-0.0666 z m -0.022,0.0849 c -0.002,0.005 -0.004,0.0103 -0.006,0.0152 0.002,-0.005 0.004,-0.0102 0.006,-0.0152 z m -0.0152,0.0361 c -0.002,0.004 -0.004,0.008 -0.006,0.0127 0.002,-0.004 0.004,-0.008 0.006,-0.0127 z m -0.0192,0.0355 c -0.002,0.003 -0.003,0.006 -0.005,0.009 0.002,-0.003 0.003,-0.006 0.005,-0.009 z m 0.92746,0.19648 c -0.003,0.006 -0.006,0.0137 -0.009,0.0197 0.003,-0.006 0.006,-0.0134 0.009,-0.0197 z m -0.0283,0.0513 c -0.005,0.008 -0.01,0.017 -0.0143,0.0235 0.005,-0.006 0.01,-0.0158 0.0143,-0.0235 z m -1.33465,0.10357 c -0.009,0.003 -0.0214,0.006 -0.0346,0.008 0.0133,-0.002 0.0255,-0.005 0.0346,-0.008 z m 1.11548,1.01068 c -0.005,0.006 -0.0102,0.0119 -0.014,0.0169 0.004,-0.005 0.009,-0.0108 0.014,-0.0169 z m -0.0206,0.0254 c -0.002,0.002 -0.003,0.005 -0.005,0.007 10e-4,-0.002 0.003,-0.004 0.005,-0.007 z m -0.006,0.009 c -6.2e-4,9.9e-4 -0.001,0.002 -0.002,0.003 4.5e-4,-8.5e-4 10e-4,-0.002 0.002,-0.003 z m -0.002,0.004 c -1.4e-4,2.9e-4 -2.7e-4,5.4e-4 -3.9e-4,8.1e-4 1.1e-4,-2.6e-4 2.5e-4,-5.4e-4 3.9e-4,-8.1e-4 z" /><g
       id="g912"><path
         style="fill:none;fill-opacity:1;stroke:#000000;stroke-width:0.1;stroke-linecap:round;stroke-miterlimit:33.9;stroke-dasharray:none;stroke-opacity:1"
         d="M 8.972675,19.159481 V 468.36968"
         id="path897" /><path
         style="fill:none;fill-opacity:1;stroke:#000000;stroke-width:0.1;stroke-linecap:round;stroke-miterlimit:33.9;stroke-dasharray:none;stroke-opacity:1"
         d="m 70.569072,19.15948 v 449.2102"
         id="path898" /><path
         style="fill:none;fill-opacity:1;stroke:#000000;stroke-width:0.1;stroke-linecap:round;stroke-miterlimit:33.9;stroke-dasharray:none;stroke-opacity:1"
         d="M 314.97029,19.159491 V 468.36967"
         id="path899" /><path
         style="fill:none;fill-opacity:1;stroke:#000000;stroke-width:0.1;stroke-linecap:round;stroke-miterlimit:33.9;stroke-dasharray:none;stroke-opacity:1"
         d="M 253.39659,18.972392 V 468.18259"
         id="path901" /><path
         style="fill:none;fill-opacity:1;stroke:#000000;stroke-width:0.1;stroke-linecap:round;stroke-miterlimit:33.9;stroke-dasharray:none;stroke-opacity:1"
         d="m 131.37172,19.159481 c 0.51014,149.736729 0.15314,299.473469 0,449.210199"
         id="path902" /><path
         style="fill:none;fill-opacity:1;stroke:#000000;stroke-width:0.1;stroke-linecap:round;stroke-miterlimit:33.9;stroke-dasharray:none;stroke-opacity:1"
         d="M 192.57125,19.159482 V 468.36968"
         id="path903" /></g><g
       id="g911"
       transform="translate(0.18708867,-2.4321527)"><path
         style="fill:none;fill-opacity:1;stroke:#000000;stroke-width:0.1;stroke-linecap:round;stroke-miterlimit:33.9;stroke-dasharray:none;stroke-opacity:1"
         d="M 2.4321525,151.54182 H 324.97301"
         id="path905" /><path
         style="fill:none;fill-opacity:1;stroke:#000000;stroke-width:0.1;stroke-linecap:round;stroke-miterlimit:33.9;stroke-dasharray:none;stroke-opacity:1"
         d="M 2.6192411,29.934187 H 325.16011"
         id="path906" /><path
         style="fill:none;fill-opacity:1;stroke:#000000;stroke-width:0.1;stroke-linecap:round;stroke-miterlimit:33.9;stroke-dasharray:none;stroke-opacity:1"
         d="M 2.6192411,90.550915 H 325.16011"
         id="path907" /><path
         style="fill:none;fill-opacity:1;stroke:#000000;stroke-width:0.1;stroke-linecap:round;stroke-miterlimit:33.9;stroke-dasharray:none;stroke-opacity:1"
         d="M 2.9934185,212.53272 H 325.53428"
         id="path908" /><path
         style="fill:none;fill-opacity:1;stroke:#000000;stroke-width:0.1;stroke-linecap:round;stroke-miterlimit:33.9;stroke-dasharray:none;stroke-opacity:1"
         d="M 2.6192412,273.52363 H 325.1601"
         id="path909" /><path
         style="fill:none;fill-opacity:1;stroke:#000000;stroke-width:0.1;stroke-linecap:round;stroke-miterlimit:33.9;stroke-dasharray:none;stroke-opacity:1"
         d="M 1.8708865,334.51454 H 324.41175"
         id="path910" /></g><g
       id="g872"><rect
         style="fill:#ffffff;fill-opacity:1;stroke:none;stroke-width:0.1;stroke-linecap:round;stroke-miterlimit:33.9;stroke-dasharray:none;stroke-opacity:1"
         id="rect841"
         width="2.1166666"
         height="425.039"
         x="7.8467093"
         y="29.049328"
         rx="0.5"
         ry="0.45534202" /><rect
         style="fill:#ffffff;fill-opacity:1;stroke:none;stroke-width:0.1;stroke-linecap:round;stroke-miterlimit:33.9;stroke-dasharray:none;stroke-opacity:1"
         id="rect850"
         width="2.1166666"
         height="425.039"
         x="69.494621"
         y="28.808372"
         rx="0.5"
         ry="0.45534202" /><rect
         style="fill:#ffffff;fill-opacity:1;stroke:none;stroke-width:0.1;stroke-linecap:round;stroke-miterlimit:33.9;stroke-dasharray:none;stroke-opacity:1"
         id="rect852"
         width="2.1166666"
         height="425.039"
         x="130.61339"
         y="29.290283"
         rx="0.5"
         ry="0.45534202" /><rect
         style="fill:#ffffff;fill-opacity:1;stroke:none;stroke-width:0.1;stroke-linecap:round;stroke-miterlimit:33.9;stroke-dasharray:none;stroke-opacity:1"
         id="rect861"
         width="2.1166666"
         height="425.039"
         x="191.73215"
         y="29.531227"
         rx="0.5"
         ry="0.45534202" /><rect
         style="fill:#ffffff;fill-opacity:1;stroke:none;stroke-width:0.1;stroke-linecap:round;stroke-miterlimit:33.9;stroke-dasharray:none;stroke-opacity:1"
         id="rect863"
         width="2.1166666"
         height="425.039"
         x="252.32173"
         y="28.326469"
         rx="0.5"
         ry="0.45534202" /><rect
         style="fill:#ffffff;fill-opacity:1;stroke:none;stroke-width:0.1;stroke-linecap:round;stroke-miterlimit:33.9;stroke-dasharray:none;stroke-opacity:1"
         id="rect872"
         width="2.1166666"
         height="425.039"
         x="313.96964"
         y="28.808372"
         rx="0.5"
         ry="0.45534202" /></g><g
       id="g898"><rect
         style="fill:#ffffff;fill-opacity:1;stroke:none;stroke-width:0.1;stroke-linecap:round;stroke-miterlimit:33.9;stroke-dasharray:none;stroke-opacity:1"
         id="rect904"
         width="308.26117"
         height="2.9012814"
         x="7.9109082"
         y="27.090923"
         rx="0.48461005"
         ry="0.48461005" /><rect
         style="fill:#ffffff;fill-opacity:1;stroke:none;stroke-width:0.1;stroke-linecap:round;stroke-miterlimit:33.9;stroke-dasharray:none;stroke-opacity:1"
         id="rect874"
         width="308.26117"
         height="2.9012814"
         x="7.9109082"
         y="86.35759"
         rx="0.48461005"
         ry="0.48461005" /><rect
         style="fill:#ffffff;fill-opacity:1;stroke:none;stroke-width:0.1;stroke-linecap:round;stroke-miterlimit:33.9;stroke-dasharray:none;stroke-opacity:1"
         id="rect883"
         width="308.26117"
         height="2.9012814"
         x="7.9109082"
         y="147.47633"
         rx="0.48461005"
         ry="0.48461005" /><rect
         style="fill:#ffffff;fill-opacity:1;stroke:none;stroke-width:0.1;stroke-linecap:round;stroke-miterlimit:33.9;stroke-dasharray:none;stroke-opacity:1"
         id="rect885"
         width="308.26117"
         height="2.9012814"
         x="7.9109082"
         y="208.85966"
         rx="0.48461005"
         ry="0.48461005" /><rect
         style="fill:#ffffff;fill-opacity:1;stroke:none;stroke-width:0.1;stroke-linecap:round;stroke-miterlimit:33.9;stroke-dasharray:none;stroke-opacity:1"
         id="rect894"
         width="308.26117"
         height="2.9012814"
         x="7.6463251"
         y="269.71384"
         rx="0.48461005"
         ry="0.48461005" /><rect
         style="fill:#ffffff;fill-opacity:1;stroke:none;stroke-width:0.1;stroke-linecap:round;stroke-miterlimit:33.9;stroke-dasharray:none;stroke-opacity:1"
         id="rect896"
         width="308.26117"
         height="2.9012814"
         x="7.9109082"
         y="330.56799"
         rx="0.48461005"
         ry="0.48461005" /><rect
         style="fill:#ffffff;fill-opacity:1;stroke:none;stroke-width:0.1;stroke-linecap:round;stroke-miterlimit:33.9;stroke-dasharray:none;stroke-opacity:1"
         id="rect897"
         width="308.26117"
         height="2.9012814"
         x="7.6463251"
         y="391.42215"
         rx="0.48461005"
         ry="0.48461005" /><rect
         style="fill:#ffffff;fill-opacity:1;stroke:none;stroke-width:0.1;stroke-linecap:round;stroke-miterlimit:33.9;stroke-dasharray:none;stroke-opacity:1"
         id="rect898"
         width="308.26117"
         height="2.9012814"
         x="7.6463251"
         y="452.54089"
         rx="0.48461005"
         ry="0.48461005" /></g></g></svg>
